<svg width="50" height="50" viewBox="0 0 50 50" fill="none" xmlns="http://www.w3.org/2000/svg">
<path d="M47.6562 25.7812C47.6562 38.2812 37.5 48.4375 25 48.4375C12.5 48.4375 2.34375 38.2812 2.34375 25.7812C2.34375 13.2812 12.5 3.125 25 3.125C37.5 3.125 47.6562 13.2812 47.6562 25.7812Z" fill="url(#paint0_radial_1_118)"/>
<path d="M47.6562 25.7812C47.6562 38.2812 37.5 48.4375 25 48.4375C12.5 48.4375 2.34375 38.2812 2.34375 25.7812C2.34375 13.2812 12.5 3.125 25 3.125C37.5 3.125 47.6562 13.2812 47.6562 25.7812Z" fill="url(#paint1_radial_1_118)" fill-opacity="0.4"/>
<path d="M47.6562 25.7812C47.6562 38.2812 37.5 48.4375 25 48.4375C12.5 48.4375 2.34375 38.2812 2.34375 25.7812C2.34375 13.2812 12.5 3.125 25 3.125C37.5 3.125 47.6562 13.2812 47.6562 25.7812Z" fill="url(#paint2_radial_1_118)" fill-opacity="0.4"/>
<g filter="url(#filter0_ddii_1_118)">
<path d="M22.3438 26.875C20.9375 23.0469 18.8281 21.0938 16.7188 21.0938C14.6094 21.0938 12.5 23.0469 11.0938 26.875C10.9375 27.2656 11.6406 27.9687 12.0313 27.5781C13.3594 26.1719 15 25.5469 16.7188 25.5469C18.4375 25.5469 20.0781 26.0937 21.4063 27.5781C21.7969 27.9687 22.5 27.2656 22.3438 26.875Z" fill="#5A3A13"/>
<path d="M22.3438 26.875C20.9375 23.0469 18.8281 21.0938 16.7188 21.0938C14.6094 21.0938 12.5 23.0469 11.0938 26.875C10.9375 27.2656 11.6406 27.9687 12.0313 27.5781C13.3594 26.1719 15 25.5469 16.7188 25.5469C18.4375 25.5469 20.0781 26.0937 21.4063 27.5781C21.7969 27.9687 22.5 27.2656 22.3438 26.875Z" fill="url(#paint3_radial_1_118)" style="mix-blend-mode:soft-light"/>
</g>
<g filter="url(#filter1_ddii_1_118)">
<path d="M38.9063 26.875C37.5 23.0469 35.3906 21.0938 33.2813 21.0938C31.1719 21.0938 29.0625 23.0469 27.6563 26.875C27.5 27.2656 28.2031 27.9687 28.5938 27.5781C29.9219 26.1719 31.5625 25.5469 33.2813 25.5469C35 25.5469 36.6406 26.0937 37.9688 27.5781C38.2813 27.9687 39.0625 27.2656 38.9063 26.875Z" fill="#5A3A13"/>
<path d="M38.9063 26.875C37.5 23.0469 35.3906 21.0938 33.2813 21.0938C31.1719 21.0938 29.0625 23.0469 27.6563 26.875C27.5 27.2656 28.2031 27.9687 28.5938 27.5781C29.9219 26.1719 31.5625 25.5469 33.2813 25.5469C35 25.5469 36.6406 26.0937 37.9688 27.5781C38.2813 27.9687 39.0625 27.2656 38.9063 26.875Z" fill="url(#paint4_radial_1_118)" style="mix-blend-mode:soft-light"/>
</g>
<g filter="url(#filter2_ii_1_118)">
<path d="M34.5313 32.9688C28.4375 37.2657 21.6407 37.1875 15.5469 32.9688C14.8438 32.4219 14.1407 33.3594 14.6875 34.1407C16.5625 37.1875 20.3125 39.9219 25.0782 39.9219C29.8438 39.9219 33.5938 37.1875 35.4688 34.1407C35.8594 33.3594 35.2344 32.5 34.5313 32.9688Z" fill="#9F5600"/>
<path d="M34.5313 32.9688C28.4375 37.2657 21.6407 37.1875 15.5469 32.9688C14.8438 32.4219 14.1407 33.3594 14.6875 34.1407C16.5625 37.1875 20.3125 39.9219 25.0782 39.9219C29.8438 39.9219 33.5938 37.1875 35.4688 34.1407C35.8594 33.3594 35.2344 32.5 34.5313 32.9688Z" fill="url(#paint5_radial_1_118)" fill-opacity="0.5"/>
</g>
<path d="M34.2539 32.5528L34.2538 32.5526L34.2431 32.5602C28.3291 36.7303 21.7652 36.6605 15.8417 32.5647C15.5784 32.3643 15.2729 32.2711 14.9657 32.3167C14.6598 32.3621 14.4115 32.5365 14.2467 32.7591C13.9194 33.2009 13.888 33.8593 14.2689 34.4143C16.2239 37.5827 20.1209 40.4219 25.0782 40.4219C30.0415 40.4219 33.942 37.5757 35.8946 34.4027L35.9061 34.384L35.916 34.3643C36.1912 33.8138 36.1263 33.1968 35.8065 32.7811C35.6445 32.5706 35.4085 32.4037 35.1167 32.352C34.8202 32.2994 34.5204 32.3751 34.2539 32.5528Z" stroke="#FEC535"/>
<g filter="url(#filter3_dii_1_118)">
<path d="M42.4219 5.62499C42.0312 2.34374 35.8594 0.62499 22.2656 2.03124C9.53125 3.43749 3.04687 6.48436 3.35937 9.68749C3.90624 14.6875 12.8906 16.4062 23.6719 15.2344C34.4531 14.1406 42.8906 10.625 42.4219 5.62499ZM23.125 9.84374C15.9375 10.625 9.92187 10.1562 9.84375 8.90624C9.76562 8.43749 10.5469 7.96874 11.7969 7.42186C15.4687 4.76561 20.0781 3.12499 25 3.12499C28.5156 3.12499 31.875 3.90624 34.8437 5.39061C35.5469 5.62499 35.9375 5.85936 35.9375 6.17186C36.0937 7.34374 30.3125 9.06249 23.125 9.84374Z" fill="url(#paint6_linear_1_118)"/>
<path d="M42.4219 5.62499C42.0312 2.34374 35.8594 0.62499 22.2656 2.03124C9.53125 3.43749 3.04687 6.48436 3.35937 9.68749C3.90624 14.6875 12.8906 16.4062 23.6719 15.2344C34.4531 14.1406 42.8906 10.625 42.4219 5.62499ZM23.125 9.84374C15.9375 10.625 9.92187 10.1562 9.84375 8.90624C9.76562 8.43749 10.5469 7.96874 11.7969 7.42186C15.4687 4.76561 20.0781 3.12499 25 3.12499C28.5156 3.12499 31.875 3.90624 34.8437 5.39061C35.5469 5.62499 35.9375 5.85936 35.9375 6.17186C36.0937 7.34374 30.3125 9.06249 23.125 9.84374Z" fill="url(#paint7_radial_1_118)"/>
<path d="M42.4219 5.62499C42.0312 2.34374 35.8594 0.62499 22.2656 2.03124C9.53125 3.43749 3.04687 6.48436 3.35937 9.68749C3.90624 14.6875 12.8906 16.4062 23.6719 15.2344C34.4531 14.1406 42.8906 10.625 42.4219 5.62499ZM23.125 9.84374C15.9375 10.625 9.92187 10.1562 9.84375 8.90624C9.76562 8.43749 10.5469 7.96874 11.7969 7.42186C15.4687 4.76561 20.0781 3.12499 25 3.12499C28.5156 3.12499 31.875 3.90624 34.8437 5.39061C35.5469 5.62499 35.9375 5.85936 35.9375 6.17186C36.0937 7.34374 30.3125 9.06249 23.125 9.84374Z" fill="url(#paint8_radial_1_118)"/>
</g>
<defs>
<filter id="filter0_ddii_1_118" x="9.21287" y="19.644" width="15.0118" height="10.6042" filterUnits="userSpaceOnUse" color-interpolation-filters="sRGB">
<feFlood flood-opacity="0" result="BackgroundImageFix"/>
<feColorMatrix in="SourceAlpha" type="matrix" values="0 0 0 0 0 0 0 0 0 0 0 0 0 0 0 0 0 0 127 0" result="hardAlpha"/>
<feOffset dy="0.696983"/>
<feGaussianBlur stdDeviation="0.929311"/>
<feColorMatrix type="matrix" values="0 0 0 0 0.520833 0 0 0 0 0.0740885 0 0 0 0 0.0455729 0 0 0 0.45 0"/>
<feBlend mode="normal" in2="BackgroundImageFix" result="effect1_dropShadow_1_118"/>
<feColorMatrix in="SourceAlpha" type="matrix" values="0 0 0 0 0 0 0 0 0 0 0 0 0 0 0 0 0 0 127 0" result="hardAlpha"/>
<feOffset dy="0.232328"/>
<feGaussianBlur stdDeviation="0.696983"/>
<feColorMatrix type="matrix" values="0 0 0 0 0.225 0 0 0 0 0.0874875 0 0 0 0 0.0440625 0 0 0 0.25 0"/>
<feBlend mode="normal" in2="effect1_dropShadow_1_118" result="effect2_dropShadow_1_118"/>
<feBlend mode="normal" in="SourceGraphic" in2="effect2_dropShadow_1_118" result="shape"/>
<feColorMatrix in="SourceAlpha" type="matrix" values="0 0 0 0 0 0 0 0 0 0 0 0 0 0 0 0 0 0 127 0" result="hardAlpha"/>
<feOffset dy="-1.39397"/>
<feGaussianBlur stdDeviation="1.39397"/>
<feComposite in2="hardAlpha" operator="arithmetic" k2="-1" k3="1"/>
<feColorMatrix type="matrix" values="0 0 0 0 0.629167 0 0 0 0 0.206786 0 0 0 0 0.0734028 0 0 0 0.11 0"/>
<feBlend mode="normal" in2="shape" result="effect3_innerShadow_1_118"/>
<feColorMatrix in="SourceAlpha" type="matrix" values="0 0 0 0 0 0 0 0 0 0 0 0 0 0 0 0 0 0 127 0" result="hardAlpha"/>
<feOffset dy="-1.44972"/>
<feGaussianBlur stdDeviation="1.44972"/>
<feComposite in2="hardAlpha" operator="arithmetic" k2="-1" k3="1"/>
<feColorMatrix type="matrix" values="0 0 0 0 0.956863 0 0 0 0 0.72549 0 0 0 0 0.639216 0 0 0 0.14 0"/>
<feBlend mode="normal" in2="effect3_innerShadow_1_118" result="effect4_innerShadow_1_118"/>
</filter>
<filter id="filter1_ddii_1_118" x="25.7754" y="19.644" width="15.01" height="10.6042" filterUnits="userSpaceOnUse" color-interpolation-filters="sRGB">
<feFlood flood-opacity="0" result="BackgroundImageFix"/>
<feColorMatrix in="SourceAlpha" type="matrix" values="0 0 0 0 0 0 0 0 0 0 0 0 0 0 0 0 0 0 127 0" result="hardAlpha"/>
<feOffset dy="0.696983"/>
<feGaussianBlur stdDeviation="0.929311"/>
<feColorMatrix type="matrix" values="0 0 0 0 0.520833 0 0 0 0 0.0740885 0 0 0 0 0.0455729 0 0 0 0.45 0"/>
<feBlend mode="normal" in2="BackgroundImageFix" result="effect1_dropShadow_1_118"/>
<feColorMatrix in="SourceAlpha" type="matrix" values="0 0 0 0 0 0 0 0 0 0 0 0 0 0 0 0 0 0 127 0" result="hardAlpha"/>
<feOffset dy="0.232328"/>
<feGaussianBlur stdDeviation="0.696983"/>
<feColorMatrix type="matrix" values="0 0 0 0 0.225 0 0 0 0 0.0874875 0 0 0 0 0.0440625 0 0 0 0.25 0"/>
<feBlend mode="normal" in2="effect1_dropShadow_1_118" result="effect2_dropShadow_1_118"/>
<feBlend mode="normal" in="SourceGraphic" in2="effect2_dropShadow_1_118" result="shape"/>
<feColorMatrix in="SourceAlpha" type="matrix" values="0 0 0 0 0 0 0 0 0 0 0 0 0 0 0 0 0 0 127 0" result="hardAlpha"/>
<feOffset dy="-1.39397"/>
<feGaussianBlur stdDeviation="1.39397"/>
<feComposite in2="hardAlpha" operator="arithmetic" k2="-1" k3="1"/>
<feColorMatrix type="matrix" values="0 0 0 0 0.629167 0 0 0 0 0.206786 0 0 0 0 0.0734028 0 0 0 0.11 0"/>
<feBlend mode="normal" in2="shape" result="effect3_innerShadow_1_118"/>
<feColorMatrix in="SourceAlpha" type="matrix" values="0 0 0 0 0 0 0 0 0 0 0 0 0 0 0 0 0 0 127 0" result="hardAlpha"/>
<feOffset dy="-1.44972"/>
<feGaussianBlur stdDeviation="1.44972"/>
<feComposite in2="hardAlpha" operator="arithmetic" k2="-1" k3="1"/>
<feColorMatrix type="matrix" values="0 0 0 0 0.956863 0 0 0 0 0.72549 0 0 0 0 0.639216 0 0 0 0.14 0"/>
<feBlend mode="normal" in2="effect3_innerShadow_1_118" result="effect4_innerShadow_1_118"/>
</filter>
<filter id="filter2_ii_1_118" x="13.4922" y="31.8053" width="23.0968" height="13.1166" filterUnits="userSpaceOnUse" color-interpolation-filters="sRGB">
<feFlood flood-opacity="0" result="BackgroundImageFix"/>
<feBlend mode="normal" in="SourceGraphic" in2="BackgroundImageFix" result="shape"/>
<feColorMatrix in="SourceAlpha" type="matrix" values="0 0 0 0 0 0 0 0 0 0 0 0 0 0 0 0 0 0 127 0" result="hardAlpha"/>
<feOffset dy="1"/>
<feGaussianBlur stdDeviation="1"/>
<feComposite in2="hardAlpha" operator="arithmetic" k2="-1" k3="1"/>
<feColorMatrix type="matrix" values="0 0 0 0 0 0 0 0 0 0 0 0 0 0 0 0 0 0 0.25 0"/>
<feBlend mode="normal" in2="shape" result="effect1_innerShadow_1_118"/>
<feColorMatrix in="SourceAlpha" type="matrix" values="0 0 0 0 0 0 0 0 0 0 0 0 0 0 0 0 0 0 127 0" result="hardAlpha"/>
<feOffset dy="4"/>
<feGaussianBlur stdDeviation="2"/>
<feComposite in2="hardAlpha" operator="arithmetic" k2="-1" k3="1"/>
<feColorMatrix type="matrix" values="0 0 0 0 0 0 0 0 0 0 0 0 0 0 0 0 0 0 0.15 0"/>
<feBlend mode="normal" in2="effect1_innerShadow_1_118" result="effect2_innerShadow_1_118"/>
</filter>
<filter id="filter3_dii_1_118" x="2.34859" y="0.537136" width="43.0919" height="19.0504" filterUnits="userSpaceOnUse" color-interpolation-filters="sRGB">
<feFlood flood-opacity="0" result="BackgroundImageFix"/>
<feColorMatrix in="SourceAlpha" type="matrix" values="0 0 0 0 0 0 0 0 0 0 0 0 0 0 0 0 0 0 127 0" result="hardAlpha"/>
<feOffset dx="1" dy="2"/>
<feGaussianBlur stdDeviation="1"/>
<feColorMatrix type="matrix" values="0 0 0 0 0.584314 0 0 0 0 0.317647 0 0 0 0 0 0 0 0 0.25 0"/>
<feBlend mode="normal" in2="BackgroundImageFix" result="effect1_dropShadow_1_118"/>
<feBlend mode="normal" in="SourceGraphic" in2="effect1_dropShadow_1_118" result="shape"/>
<feColorMatrix in="SourceAlpha" type="matrix" values="0 0 0 0 0 0 0 0 0 0 0 0 0 0 0 0 0 0 127 0" result="hardAlpha"/>
<feOffset dy="2"/>
<feGaussianBlur stdDeviation="1"/>
<feComposite in2="hardAlpha" operator="arithmetic" k2="-1" k3="1"/>
<feColorMatrix type="matrix" values="0 0 0 0 0.121569 0 0 0 0 0.466667 0 0 0 0 0.819608 0 0 0 1 0"/>
<feBlend mode="normal" in2="shape" result="effect2_innerShadow_1_118"/>
<feColorMatrix in="SourceAlpha" type="matrix" values="0 0 0 0 0 0 0 0 0 0 0 0 0 0 0 0 0 0 127 0" result="hardAlpha"/>
<feOffset dx="-2" dy="-2"/>
<feGaussianBlur stdDeviation="0.5"/>
<feComposite in2="hardAlpha" operator="arithmetic" k2="-1" k3="1"/>
<feColorMatrix type="matrix" values="0 0 0 0 0.8 0 0 0 0 0.968627 0 0 0 0 1 0 0 0 0.35 0"/>
<feBlend mode="overlay" in2="effect2_innerShadow_1_118" result="effect3_innerShadow_1_118"/>
</filter>
<radialGradient id="paint0_radial_1_118" cx="0" cy="0" r="1" gradientUnits="userSpaceOnUse" gradientTransform="translate(24.6618 13.6077) rotate(90) scale(13.188)">
<stop stop-color="#FDF3DF"/>
<stop offset="1" stop-color="#FFC533"/>
</radialGradient>
<radialGradient id="paint1_radial_1_118" cx="0" cy="0" r="1" gradientUnits="userSpaceOnUse" gradientTransform="translate(37.8498 29.8391) rotate(172.648) scale(10.5696)">
<stop stop-color="#FF5C28"/>
<stop offset="1" stop-color="#FF5C28" stop-opacity="0"/>
</radialGradient>
<radialGradient id="paint2_radial_1_118" cx="0" cy="0" r="1" gradientUnits="userSpaceOnUse" gradientTransform="translate(13.8184 30.4703) rotate(33.6901) scale(9.10357)">
<stop stop-color="#FF5C28"/>
<stop offset="1" stop-color="#FF5C28" stop-opacity="0"/>
</radialGradient>
<radialGradient id="paint3_radial_1_118" cx="0" cy="0" r="1" gradientUnits="userSpaceOnUse" gradientTransform="translate(15.2819 22.4501) rotate(55.1813) scale(5.12297 6.6148)">
<stop stop-color="white"/>
<stop offset="1" stop-opacity="0"/>
</radialGradient>
<radialGradient id="paint4_radial_1_118" cx="0" cy="0" r="1" gradientUnits="userSpaceOnUse" gradientTransform="translate(31.8437 22.4501) rotate(55.1857) scale(5.12269 6.61407)">
<stop stop-color="white"/>
<stop offset="1" stop-opacity="0"/>
</radialGradient>
<radialGradient id="paint5_radial_1_118" cx="0" cy="0" r="1" gradientUnits="userSpaceOnUse" gradientTransform="translate(24.7597 34.4422) rotate(90) scale(5.50341 25.8509)">
<stop/>
<stop offset="1" stop-opacity="0"/>
</radialGradient>
<linearGradient id="paint6_linear_1_118" x1="22.8945" y1="1.53714" x2="22.8945" y2="15.5875" gradientUnits="userSpaceOnUse">
<stop stop-color="#0047B3"/>
<stop offset="0.765625" stop-color="#48BDFF"/>
<stop offset="1" stop-color="#A2EEFF"/>
</linearGradient>
<radialGradient id="paint7_radial_1_118" cx="0" cy="0" r="1" gradientUnits="userSpaceOnUse" gradientTransform="translate(19.8155 7.14219) rotate(121.698) scale(9.40531 20.1761)">
<stop stop-color="#CCF7FF"/>
<stop offset="0.36875" stop-color="#48BDFF"/>
<stop offset="0.691666" stop-color="#289AD8"/>
<stop offset="0.905208" stop-color="#48BDFF" stop-opacity="0"/>
</radialGradient>
<radialGradient id="paint8_radial_1_118" cx="0" cy="0" r="1" gradientUnits="userSpaceOnUse" gradientTransform="translate(17.3445 5.48654) rotate(117.778) scale(5.30201 12.2365)">
<stop stop-color="#FCFFFF"/>
<stop offset="1" stop-color="#CCF7FF" stop-opacity="0"/>
</radialGradient>
</defs>
</svg>
