<svg width="45" height="45" viewBox="0 0 45 45" fill="none" xmlns="http://www.w3.org/2000/svg">
<path d="M22.5 45C34.9264 45 45 34.9264 45 22.5C45 10.0736 34.9264 0 22.5 0C10.0736 0 0 10.0736 0 22.5C0 34.9264 10.0736 45 22.5 45Z" fill="url(#paint0_radial_1_126)"/>
<path d="M22.5 45C34.9264 45 45 34.9264 45 22.5C45 10.0736 34.9264 0 22.5 0C10.0736 0 0 10.0736 0 22.5C0 34.9264 10.0736 45 22.5 45Z" fill="url(#paint1_radial_1_126)" fill-opacity="0.4"/>
<path d="M22.5 45C34.9264 45 45 34.9264 45 22.5C45 10.0736 34.9264 0 22.5 0C10.0736 0 0 10.0736 0 22.5C0 34.9264 10.0736 45 22.5 45Z" fill="url(#paint2_radial_1_126)" fill-opacity="0.4"/>
<g filter="url(#filter0_ddii_1_126)">
<path d="M13.5151 25.0915C15.5954 25.0915 17.2818 23.4051 17.2818 21.3248C17.2818 19.2445 15.5954 17.558 13.5151 17.558C11.4348 17.558 9.74833 19.2445 9.74833 21.3248C9.74833 23.4051 11.4348 25.0915 13.5151 25.0915Z" fill="#5A3A13"/>
<path d="M13.5151 25.0915C15.5954 25.0915 17.2818 23.4051 17.2818 21.3248C17.2818 19.2445 15.5954 17.558 13.5151 17.558C11.4348 17.558 9.74833 19.2445 9.74833 21.3248C9.74833 23.4051 11.4348 25.0915 13.5151 25.0915Z" fill="url(#paint3_radial_1_126)" style="mix-blend-mode:soft-light"/>
</g>
<g filter="url(#filter1_ddii_1_126)">
<path d="M30.8421 25.0915C32.9224 25.0915 34.6088 23.4051 34.6088 21.3248C34.6088 19.2445 32.9224 17.558 30.8421 17.558C28.7618 17.558 27.0753 19.2445 27.0753 21.3248C27.0753 23.4051 28.7618 25.0915 30.8421 25.0915Z" fill="#5A3A13"/>
<path d="M30.8421 25.0915C32.9224 25.0915 34.6088 23.4051 34.6088 21.3248C34.6088 19.2445 32.9224 17.558 30.8421 17.558C28.7618 17.558 27.0753 19.2445 27.0753 21.3248C27.0753 23.4051 28.7618 25.0915 30.8421 25.0915Z" fill="url(#paint4_radial_1_126)" style="mix-blend-mode:soft-light"/>
</g>
<g filter="url(#filter2_ddii_1_126)">
<path d="M26.3812 9.30875C26.4975 9.54125 29.3075 15 36.25 15C36.9412 15 37.5 14.44 37.5 13.75C37.5 13.06 36.9412 12.5 36.25 12.5C30.8912 12.5 28.7087 8.3675 28.615 8.185C28.305 7.57125 27.5562 7.3225 26.94 7.63125C26.3225 7.94 26.0725 8.69125 26.3812 9.30875Z" fill="#5A3A13"/>
<path d="M26.3812 9.30875C26.4975 9.54125 29.3075 15 36.25 15C36.9412 15 37.5 14.44 37.5 13.75C37.5 13.06 36.9412 12.5 36.25 12.5C30.8912 12.5 28.7087 8.3675 28.615 8.185C28.305 7.57125 27.5562 7.3225 26.94 7.63125C26.3225 7.94 26.0725 8.69125 26.3812 9.30875Z" fill="url(#paint5_radial_1_126)" style="mix-blend-mode:soft-light"/>
</g>
<g filter="url(#filter3_ddii_1_126)">
<path d="M8.75002 15C8.06002 15 7.50002 14.44 7.50002 13.75C7.50002 13.06 8.06002 12.5 8.75002 12.5C15.1038 12.5 16.245 8.6 16.2913 8.43375C16.4725 7.77375 17.1563 7.37375 17.815 7.5475C18.4775 7.72125 18.8788 8.38875 18.7125 9.05375C18.6513 9.29625 17.13 15 8.75002 15Z" fill="#5A3A13"/>
<path d="M8.75002 15C8.06002 15 7.50002 14.44 7.50002 13.75C7.50002 13.06 8.06002 12.5 8.75002 12.5C15.1038 12.5 16.245 8.6 16.2913 8.43375C16.4725 7.77375 17.1563 7.37375 17.815 7.5475C18.4775 7.72125 18.8788 8.38875 18.7125 9.05375C18.6513 9.29625 17.13 15 8.75002 15Z" fill="url(#paint6_radial_1_126)" style="mix-blend-mode:soft-light"/>
</g>
<g filter="url(#filter4_ii_1_126)">
<path d="M29.3562 34.8487C29.3425 34.7937 27.925 29.375 22.5 29.375C17.075 29.375 15.6575 34.7937 15.6437 34.8487C15.5775 35.115 15.6987 35.3875 15.9337 35.5287C16.1687 35.6687 16.475 35.6362 16.6787 35.4537C16.69 35.4437 17.945 34.375 22.5 34.375C26.9875 34.375 28.2712 35.4125 28.32 35.4537C28.4387 35.5662 28.5937 35.625 28.75 35.625C28.855 35.625 28.9612 35.5987 29.0575 35.545C29.3025 35.405 29.425 35.1212 29.3562 34.8487Z" fill="#9F5600"/>
<path d="M29.3562 34.8487C29.3425 34.7937 27.925 29.375 22.5 29.375C17.075 29.375 15.6575 34.7937 15.6437 34.8487C15.5775 35.115 15.6987 35.3875 15.9337 35.5287C16.1687 35.6687 16.475 35.6362 16.6787 35.4537C16.69 35.4437 17.945 34.375 22.5 34.375C26.9875 34.375 28.2712 35.4125 28.32 35.4537C28.4387 35.5662 28.5937 35.625 28.75 35.625C28.855 35.625 28.9612 35.5987 29.0575 35.545C29.3025 35.405 29.425 35.1212 29.3562 34.8487Z" fill="url(#paint7_radial_1_126)" fill-opacity="0.5"/>
</g>
<path d="M15.1585 34.728L15.1587 34.7275C15.1738 34.6671 15.5529 33.2259 16.6445 31.7888C17.7467 30.3378 19.5919 28.875 22.5 28.875C25.408 28.875 27.2533 30.3378 28.3555 31.7888C29.4414 33.2184 29.8223 34.6522 29.8411 34.7264C29.8412 34.7268 29.8412 34.7272 29.8413 34.7275L29.3562 34.8487L15.1585 34.728ZM15.1585 34.728C15.0363 35.2192 15.2634 35.7092 15.6762 35.9573L15.6778 35.9583C16.101 36.2104 16.6401 36.1526 17.0034 35.8342C17.0033 35.8342 17.0033 35.8343 17.0033 35.8343C17.0045 35.8359 18.2156 34.875 22.5 34.875C26.6285 34.875 27.9049 35.7675 27.9949 35.8341L15.1585 34.728Z" stroke="#FEC535"/>
<defs>
<filter id="filter0_ddii_1_126" x="7.88971" y="16.1083" width="11.2507" height="11.5388" filterUnits="userSpaceOnUse" color-interpolation-filters="sRGB">
<feFlood flood-opacity="0" result="BackgroundImageFix"/>
<feColorMatrix in="SourceAlpha" type="matrix" values="0 0 0 0 0 0 0 0 0 0 0 0 0 0 0 0 0 0 127 0" result="hardAlpha"/>
<feOffset dy="0.696983"/>
<feGaussianBlur stdDeviation="0.929311"/>
<feColorMatrix type="matrix" values="0 0 0 0 0.520833 0 0 0 0 0.0740885 0 0 0 0 0.0455729 0 0 0 0.45 0"/>
<feBlend mode="normal" in2="BackgroundImageFix" result="effect1_dropShadow_1_126"/>
<feColorMatrix in="SourceAlpha" type="matrix" values="0 0 0 0 0 0 0 0 0 0 0 0 0 0 0 0 0 0 127 0" result="hardAlpha"/>
<feOffset dy="0.232328"/>
<feGaussianBlur stdDeviation="0.696983"/>
<feColorMatrix type="matrix" values="0 0 0 0 0.225 0 0 0 0 0.0874875 0 0 0 0 0.0440625 0 0 0 0.25 0"/>
<feBlend mode="normal" in2="effect1_dropShadow_1_126" result="effect2_dropShadow_1_126"/>
<feBlend mode="normal" in="SourceGraphic" in2="effect2_dropShadow_1_126" result="shape"/>
<feColorMatrix in="SourceAlpha" type="matrix" values="0 0 0 0 0 0 0 0 0 0 0 0 0 0 0 0 0 0 127 0" result="hardAlpha"/>
<feOffset dy="-1.39397"/>
<feGaussianBlur stdDeviation="1.39397"/>
<feComposite in2="hardAlpha" operator="arithmetic" k2="-1" k3="1"/>
<feColorMatrix type="matrix" values="0 0 0 0 0.629167 0 0 0 0 0.206786 0 0 0 0 0.0734028 0 0 0 0.11 0"/>
<feBlend mode="normal" in2="shape" result="effect3_innerShadow_1_126"/>
<feColorMatrix in="SourceAlpha" type="matrix" values="0 0 0 0 0 0 0 0 0 0 0 0 0 0 0 0 0 0 127 0" result="hardAlpha"/>
<feOffset dy="-1.44972"/>
<feGaussianBlur stdDeviation="1.44972"/>
<feComposite in2="hardAlpha" operator="arithmetic" k2="-1" k3="1"/>
<feColorMatrix type="matrix" values="0 0 0 0 0.956863 0 0 0 0 0.72549 0 0 0 0 0.639216 0 0 0 0.14 0"/>
<feBlend mode="normal" in2="effect3_innerShadow_1_126" result="effect4_innerShadow_1_126"/>
</filter>
<filter id="filter1_ddii_1_126" x="25.2167" y="16.1083" width="11.2507" height="11.5388" filterUnits="userSpaceOnUse" color-interpolation-filters="sRGB">
<feFlood flood-opacity="0" result="BackgroundImageFix"/>
<feColorMatrix in="SourceAlpha" type="matrix" values="0 0 0 0 0 0 0 0 0 0 0 0 0 0 0 0 0 0 127 0" result="hardAlpha"/>
<feOffset dy="0.696983"/>
<feGaussianBlur stdDeviation="0.929311"/>
<feColorMatrix type="matrix" values="0 0 0 0 0.520833 0 0 0 0 0.0740885 0 0 0 0 0.0455729 0 0 0 0.45 0"/>
<feBlend mode="normal" in2="BackgroundImageFix" result="effect1_dropShadow_1_126"/>
<feColorMatrix in="SourceAlpha" type="matrix" values="0 0 0 0 0 0 0 0 0 0 0 0 0 0 0 0 0 0 127 0" result="hardAlpha"/>
<feOffset dy="0.232328"/>
<feGaussianBlur stdDeviation="0.696983"/>
<feColorMatrix type="matrix" values="0 0 0 0 0.225 0 0 0 0 0.0874875 0 0 0 0 0.0440625 0 0 0 0.25 0"/>
<feBlend mode="normal" in2="effect1_dropShadow_1_126" result="effect2_dropShadow_1_126"/>
<feBlend mode="normal" in="SourceGraphic" in2="effect2_dropShadow_1_126" result="shape"/>
<feColorMatrix in="SourceAlpha" type="matrix" values="0 0 0 0 0 0 0 0 0 0 0 0 0 0 0 0 0 0 127 0" result="hardAlpha"/>
<feOffset dy="-1.39397"/>
<feGaussianBlur stdDeviation="1.39397"/>
<feComposite in2="hardAlpha" operator="arithmetic" k2="-1" k3="1"/>
<feColorMatrix type="matrix" values="0 0 0 0 0.629167 0 0 0 0 0.206786 0 0 0 0 0.0734028 0 0 0 0.11 0"/>
<feBlend mode="normal" in2="shape" result="effect3_innerShadow_1_126"/>
<feColorMatrix in="SourceAlpha" type="matrix" values="0 0 0 0 0 0 0 0 0 0 0 0 0 0 0 0 0 0 127 0" result="hardAlpha"/>
<feOffset dy="-1.44972"/>
<feGaussianBlur stdDeviation="1.44972"/>
<feComposite in2="hardAlpha" operator="arithmetic" k2="-1" k3="1"/>
<feColorMatrix type="matrix" values="0 0 0 0 0.956863 0 0 0 0 0.72549 0 0 0 0 0.639216 0 0 0 0.14 0"/>
<feBlend mode="normal" in2="effect3_innerShadow_1_126" result="effect4_innerShadow_1_126"/>
</filter>
<filter id="filter2_ddii_1_126" x="24.3903" y="6.04888" width="14.9683" height="11.5067" filterUnits="userSpaceOnUse" color-interpolation-filters="sRGB">
<feFlood flood-opacity="0" result="BackgroundImageFix"/>
<feColorMatrix in="SourceAlpha" type="matrix" values="0 0 0 0 0 0 0 0 0 0 0 0 0 0 0 0 0 0 127 0" result="hardAlpha"/>
<feOffset dy="0.696983"/>
<feGaussianBlur stdDeviation="0.929311"/>
<feColorMatrix type="matrix" values="0 0 0 0 0.520833 0 0 0 0 0.0740885 0 0 0 0 0.0455729 0 0 0 0.45 0"/>
<feBlend mode="normal" in2="BackgroundImageFix" result="effect1_dropShadow_1_126"/>
<feColorMatrix in="SourceAlpha" type="matrix" values="0 0 0 0 0 0 0 0 0 0 0 0 0 0 0 0 0 0 127 0" result="hardAlpha"/>
<feOffset dy="0.232328"/>
<feGaussianBlur stdDeviation="0.696983"/>
<feColorMatrix type="matrix" values="0 0 0 0 0.225 0 0 0 0 0.0874875 0 0 0 0 0.0440625 0 0 0 0.25 0"/>
<feBlend mode="normal" in2="effect1_dropShadow_1_126" result="effect2_dropShadow_1_126"/>
<feBlend mode="normal" in="SourceGraphic" in2="effect2_dropShadow_1_126" result="shape"/>
<feColorMatrix in="SourceAlpha" type="matrix" values="0 0 0 0 0 0 0 0 0 0 0 0 0 0 0 0 0 0 127 0" result="hardAlpha"/>
<feOffset dy="-1.39397"/>
<feGaussianBlur stdDeviation="1.39397"/>
<feComposite in2="hardAlpha" operator="arithmetic" k2="-1" k3="1"/>
<feColorMatrix type="matrix" values="0 0 0 0 0.629167 0 0 0 0 0.206786 0 0 0 0 0.0734028 0 0 0 0.11 0"/>
<feBlend mode="normal" in2="shape" result="effect3_innerShadow_1_126"/>
<feColorMatrix in="SourceAlpha" type="matrix" values="0 0 0 0 0 0 0 0 0 0 0 0 0 0 0 0 0 0 127 0" result="hardAlpha"/>
<feOffset dy="-1.44972"/>
<feGaussianBlur stdDeviation="1.44972"/>
<feComposite in2="hardAlpha" operator="arithmetic" k2="-1" k3="1"/>
<feColorMatrix type="matrix" values="0 0 0 0 0.956863 0 0 0 0 0.72549 0 0 0 0 0.639216 0 0 0 0.14 0"/>
<feBlend mode="normal" in2="effect3_innerShadow_1_126" result="effect4_innerShadow_1_126"/>
</filter>
<filter id="filter3_ddii_1_126" x="5.64139" y="6.05715" width="14.9673" height="11.4985" filterUnits="userSpaceOnUse" color-interpolation-filters="sRGB">
<feFlood flood-opacity="0" result="BackgroundImageFix"/>
<feColorMatrix in="SourceAlpha" type="matrix" values="0 0 0 0 0 0 0 0 0 0 0 0 0 0 0 0 0 0 127 0" result="hardAlpha"/>
<feOffset dy="0.696983"/>
<feGaussianBlur stdDeviation="0.929311"/>
<feColorMatrix type="matrix" values="0 0 0 0 0.520833 0 0 0 0 0.0740885 0 0 0 0 0.0455729 0 0 0 0.45 0"/>
<feBlend mode="normal" in2="BackgroundImageFix" result="effect1_dropShadow_1_126"/>
<feColorMatrix in="SourceAlpha" type="matrix" values="0 0 0 0 0 0 0 0 0 0 0 0 0 0 0 0 0 0 127 0" result="hardAlpha"/>
<feOffset dy="0.232328"/>
<feGaussianBlur stdDeviation="0.696983"/>
<feColorMatrix type="matrix" values="0 0 0 0 0.225 0 0 0 0 0.0874875 0 0 0 0 0.0440625 0 0 0 0.25 0"/>
<feBlend mode="normal" in2="effect1_dropShadow_1_126" result="effect2_dropShadow_1_126"/>
<feBlend mode="normal" in="SourceGraphic" in2="effect2_dropShadow_1_126" result="shape"/>
<feColorMatrix in="SourceAlpha" type="matrix" values="0 0 0 0 0 0 0 0 0 0 0 0 0 0 0 0 0 0 127 0" result="hardAlpha"/>
<feOffset dy="-1.39397"/>
<feGaussianBlur stdDeviation="1.39397"/>
<feComposite in2="hardAlpha" operator="arithmetic" k2="-1" k3="1"/>
<feColorMatrix type="matrix" values="0 0 0 0 0.629167 0 0 0 0 0.206786 0 0 0 0 0.0734028 0 0 0 0.11 0"/>
<feBlend mode="normal" in2="shape" result="effect3_innerShadow_1_126"/>
<feColorMatrix in="SourceAlpha" type="matrix" values="0 0 0 0 0 0 0 0 0 0 0 0 0 0 0 0 0 0 127 0" result="hardAlpha"/>
<feOffset dy="-1.44972"/>
<feGaussianBlur stdDeviation="1.44972"/>
<feComposite in2="hardAlpha" operator="arithmetic" k2="-1" k3="1"/>
<feColorMatrix type="matrix" values="0 0 0 0 0.956863 0 0 0 0 0.72549 0 0 0 0 0.639216 0 0 0 0.14 0"/>
<feBlend mode="normal" in2="effect3_innerShadow_1_126" result="effect4_innerShadow_1_126"/>
</filter>
<filter id="filter4_ii_1_126" x="14.6253" y="28.375" width="15.7501" height="12.25" filterUnits="userSpaceOnUse" color-interpolation-filters="sRGB">
<feFlood flood-opacity="0" result="BackgroundImageFix"/>
<feBlend mode="normal" in="SourceGraphic" in2="BackgroundImageFix" result="shape"/>
<feColorMatrix in="SourceAlpha" type="matrix" values="0 0 0 0 0 0 0 0 0 0 0 0 0 0 0 0 0 0 127 0" result="hardAlpha"/>
<feOffset dy="1"/>
<feGaussianBlur stdDeviation="1"/>
<feComposite in2="hardAlpha" operator="arithmetic" k2="-1" k3="1"/>
<feColorMatrix type="matrix" values="0 0 0 0 0 0 0 0 0 0 0 0 0 0 0 0 0 0 0.25 0"/>
<feBlend mode="normal" in2="shape" result="effect1_innerShadow_1_126"/>
<feColorMatrix in="SourceAlpha" type="matrix" values="0 0 0 0 0 0 0 0 0 0 0 0 0 0 0 0 0 0 127 0" result="hardAlpha"/>
<feOffset dy="4"/>
<feGaussianBlur stdDeviation="2"/>
<feComposite in2="hardAlpha" operator="arithmetic" k2="-1" k3="1"/>
<feColorMatrix type="matrix" values="0 0 0 0 0 0 0 0 0 0 0 0 0 0 0 0 0 0 0.15 0"/>
<feBlend mode="normal" in2="effect1_innerShadow_1_126" result="effect2_innerShadow_1_126"/>
</filter>
<radialGradient id="paint0_radial_1_126" cx="0" cy="0" r="1" gradientUnits="userSpaceOnUse" gradientTransform="translate(22.1642 10.4104) rotate(90) scale(13.097)">
<stop stop-color="#FDF3DF"/>
<stop offset="1" stop-color="#FFC533"/>
</radialGradient>
<radialGradient id="paint1_radial_1_126" cx="0" cy="0" r="1" gradientUnits="userSpaceOnUse" gradientTransform="translate(35.2612 26.5298) rotate(172.648) scale(10.4968)">
<stop stop-color="#FF5C28"/>
<stop offset="1" stop-color="#FF5C28" stop-opacity="0"/>
</radialGradient>
<radialGradient id="paint2_radial_1_126" cx="0" cy="0" r="1" gradientUnits="userSpaceOnUse" gradientTransform="translate(11.3955 27.1567) rotate(33.6901) scale(9.04078)">
<stop stop-color="#FF5C28"/>
<stop offset="1" stop-color="#FF5C28" stop-opacity="0"/>
</radialGradient>
<radialGradient id="paint3_radial_1_126" cx="0" cy="0" r="1" gradientUnits="userSpaceOnUse" gradientTransform="translate(12.5567 19.1065) rotate(67.8858) scale(5.18273 4.97891)">
<stop stop-color="white"/>
<stop offset="1" stop-opacity="0"/>
</radialGradient>
<radialGradient id="paint4_radial_1_126" cx="0" cy="0" r="1" gradientUnits="userSpaceOnUse" gradientTransform="translate(29.8837 19.1065) rotate(67.8858) scale(5.18273 4.97891)">
<stop stop-color="white"/>
<stop offset="1" stop-opacity="0"/>
</radialGradient>
<radialGradient id="paint5_radial_1_126" cx="0" cy="0" r="1" gradientUnits="userSpaceOnUse" gradientTransform="translate(30.4431 9.04042) rotate(58.6393) scale(5.59899 6.85374)">
<stop stop-color="white"/>
<stop offset="1" stop-opacity="0"/>
</radialGradient>
<radialGradient id="paint6_radial_1_126" cx="0" cy="0" r="1" gradientUnits="userSpaceOnUse" gradientTransform="translate(16.7143 9.96428) rotate(148.57) scale(6.78054 5.0746)">
<stop stop-color="white"/>
<stop offset="1" stop-opacity="0"/>
</radialGradient>
<radialGradient id="paint7_radial_1_126" cx="0" cy="0" r="1" gradientUnits="userSpaceOnUse" gradientTransform="translate(22.3174 30.8125) rotate(90) scale(4.83333 16.8477)">
<stop/>
<stop offset="1" stop-opacity="0"/>
</radialGradient>
</defs>
</svg>
