<svg width="50" height="50" viewBox="0 0 50 50" fill="none" xmlns="http://www.w3.org/2000/svg">
<path d="M1.5625 25C1.5625 37.9688 12.0312 48.4375 25 48.4375C37.9688 48.4375 48.4375 37.9688 48.4375 25C48.4375 12.0312 37.9688 1.5625 25 1.5625C12.0312 1.5625 1.5625 12.0312 1.5625 25Z" fill="url(#paint0_radial_1_132)"/>
<path d="M1.5625 25C1.5625 37.9688 12.0312 48.4375 25 48.4375C37.9688 48.4375 48.4375 37.9688 48.4375 25C48.4375 12.0312 37.9688 1.5625 25 1.5625C12.0312 1.5625 1.5625 12.0312 1.5625 25Z" fill="url(#paint1_radial_1_132)" fill-opacity="0.4"/>
<path d="M1.5625 25C1.5625 37.9688 12.0312 48.4375 25 48.4375C37.9688 48.4375 48.4375 37.9688 48.4375 25C48.4375 12.0312 37.9688 1.5625 25 1.5625C12.0312 1.5625 1.5625 12.0312 1.5625 25Z" fill="url(#paint2_radial_1_132)" fill-opacity="0.4"/>
<g filter="url(#filter0_dii_1_132)">
<path d="M37.2656 29.375C37.2656 36.0937 46.4063 36.0937 46.4063 29.375C46.4063 24.4531 41.875 19.6875 41.875 19.6875C41.875 19.6875 37.2656 24.4531 37.2656 29.375Z" fill="url(#paint3_linear_1_132)"/>
<path d="M37.2656 29.375C37.2656 36.0937 46.4063 36.0937 46.4063 29.375C46.4063 24.4531 41.875 19.6875 41.875 19.6875C41.875 19.6875 37.2656 24.4531 37.2656 29.375Z" fill="url(#paint4_radial_1_132)"/>
<path d="M37.2656 29.375C37.2656 36.0937 46.4063 36.0937 46.4063 29.375C46.4063 24.4531 41.875 19.6875 41.875 19.6875C41.875 19.6875 37.2656 24.4531 37.2656 29.375Z" fill="url(#paint5_radial_1_132)"/>
</g>
<g filter="url(#filter1_ddii_1_132)">
<path d="M30.0781 31.25C32.2355 31.25 33.9844 29.5011 33.9844 27.3438C33.9844 25.1864 32.2355 23.4375 30.0781 23.4375C27.9208 23.4375 26.1719 25.1864 26.1719 27.3438C26.1719 29.5011 27.9208 31.25 30.0781 31.25Z" fill="#5A3A13"/>
<path d="M30.0781 31.25C32.2355 31.25 33.9844 29.5011 33.9844 27.3438C33.9844 25.1864 32.2355 23.4375 30.0781 23.4375C27.9208 23.4375 26.1719 25.1864 26.1719 27.3438C26.1719 29.5011 27.9208 31.25 30.0781 31.25Z" fill="url(#paint6_radial_1_132)" style="mix-blend-mode:soft-light"/>
</g>
<g filter="url(#filter2_ddii_1_132)">
<path d="M12.1094 31.25C14.2667 31.25 16.0156 29.5011 16.0156 27.3438C16.0156 25.1864 14.2667 23.4375 12.1094 23.4375C9.95201 23.4375 8.20312 25.1864 8.20312 27.3438C8.20312 29.5011 9.95201 31.25 12.1094 31.25Z" fill="#5A3A13"/>
<path d="M12.1094 31.25C14.2667 31.25 16.0156 29.5011 16.0156 27.3438C16.0156 25.1864 14.2667 23.4375 12.1094 23.4375C9.95201 23.4375 8.20312 25.1864 8.20312 27.3438C8.20312 29.5011 9.95201 31.25 12.1094 31.25Z" fill="url(#paint7_radial_1_132)" style="mix-blend-mode:soft-light"/>
</g>
<g filter="url(#filter3_ddii_1_132)">
<path d="M16.0938 15.5468C13.5938 17.6562 10.2344 18.5937 6.95313 17.9687C6.48438 17.8906 6.09375 19.5312 6.64063 19.6875C10.3906 20.3906 14.2969 19.2968 17.1875 16.875C17.5781 16.4843 16.4063 15.2343 16.0938 15.5468Z" fill="#5A3A13"/>
<path d="M16.0938 15.5468C13.5938 17.6562 10.2344 18.5937 6.95313 17.9687C6.48438 17.8906 6.09375 19.5312 6.64063 19.6875C10.3906 20.3906 14.2969 19.2968 17.1875 16.875C17.5781 16.4843 16.4063 15.2343 16.0938 15.5468Z" fill="url(#paint8_radial_1_132)" style="mix-blend-mode:soft-light"/>
</g>
<g filter="url(#filter4_ddii_1_132)">
<path d="M35.2344 17.8906C31.9531 18.4375 28.5937 17.5781 26.0937 15.4687C25.7812 15.1562 24.5312 16.4062 25 16.7969C27.8906 19.2969 31.7969 20.3125 35.5469 19.6094C36.0937 19.4531 35.7031 17.8125 35.2344 17.8906Z" fill="#5A3A13"/>
<path d="M35.2344 17.8906C31.9531 18.4375 28.5937 17.5781 26.0937 15.4687C25.7812 15.1562 24.5312 16.4062 25 16.7969C27.8906 19.2969 31.7969 20.3125 35.5469 19.6094C36.0937 19.4531 35.7031 17.8125 35.2344 17.8906Z" fill="url(#paint9_radial_1_132)" style="mix-blend-mode:soft-light"/>
</g>
<mask id="path-7-outside-1_1_132" maskUnits="userSpaceOnUse" x="15.2993" y="35.4403" width="17" height="8" fill="black">
<rect fill="white" x="15.2993" y="35.4403" width="17" height="8"/>
<path d="M29.7656 36.9531C25.2344 35.7812 20.3906 36.6406 16.5625 39.2969C15.625 40 17.4219 42.4219 18.3594 41.7969C20.8594 40 24.9219 38.8281 29.0625 39.9219C30.0781 40.1562 30.9375 37.3437 29.7656 36.9531Z"/>
</mask>
<g filter="url(#filter5_ii_1_132)">
<path d="M29.7656 36.9531C25.2344 35.7812 20.3906 36.6406 16.5625 39.2969C15.625 40 17.4219 42.4219 18.3594 41.7969C20.8594 40 24.9219 38.8281 29.0625 39.9219C30.0781 40.1562 30.9375 37.3437 29.7656 36.9531Z" fill="#9F5600"/>
<path d="M29.7656 36.9531C25.2344 35.7812 20.3906 36.6406 16.5625 39.2969C15.625 40 17.4219 42.4219 18.3594 41.7969C20.8594 40 24.9219 38.8281 29.0625 39.9219C30.0781 40.1562 30.9375 37.3437 29.7656 36.9531Z" fill="url(#paint10_radial_1_132)" fill-opacity="0.5"/>
</g>
<path d="M16.5625 39.2969L15.9924 38.4753L15.9772 38.4858L15.9625 38.4969L16.5625 39.2969ZM18.3594 41.7969L18.9141 42.6289L18.9287 42.6191L18.943 42.6089L18.3594 41.7969ZM29.0625 39.9219L28.8071 40.8887L28.8223 40.8927L28.8376 40.8963L29.0625 39.9219ZM30.016 35.985C25.2045 34.7406 20.061 35.6522 15.9924 38.4753L17.1326 40.1184C20.7202 37.629 25.2642 36.8219 29.5152 37.9213L30.016 35.985ZM15.9625 38.4969C15.3182 38.9801 15.2445 39.712 15.3288 40.2321C15.4124 40.7478 15.6634 41.2418 15.9502 41.6346C16.2377 42.0284 16.6296 42.4141 17.086 42.6539C17.533 42.8889 18.2478 43.0731 18.9141 42.6289L17.8047 40.9648C18.0021 40.8332 18.1408 40.9489 18.0165 40.8836C17.9016 40.8232 17.7271 40.6766 17.5654 40.4552C17.403 40.2328 17.3219 40.0285 17.303 39.9119C17.2848 39.7997 17.338 39.9652 17.1625 40.0969L15.9625 38.4969ZM18.943 42.6089C21.2262 40.9678 24.9845 39.879 28.8071 40.8887L29.3179 38.955C24.8592 37.7773 20.4925 39.0321 17.7757 40.9848L18.943 42.6089ZM28.8376 40.8963C29.6175 41.0762 30.2098 40.6265 30.5216 40.2664C30.8495 39.8877 31.0738 39.3987 31.1997 38.9328C31.3253 38.4681 31.3822 37.9185 31.2702 37.4026C31.155 36.872 30.8187 36.25 30.0818 36.0044L29.4494 37.9018C29.2985 37.8515 29.2942 37.7276 29.3157 37.8268C29.3404 37.9408 29.3387 38.153 29.269 38.411C29.1996 38.6677 29.0919 38.8622 29.0097 38.9572C28.9113 39.0707 29.0153 38.8847 29.2873 38.9475L28.8376 40.8963Z" fill="#FEC535" mask="url(#path-7-outside-1_1_132)"/>
<defs>
<filter id="filter0_dii_1_132" x="36.2656" y="18.6875" width="13.1406" height="19.7266" filterUnits="userSpaceOnUse" color-interpolation-filters="sRGB">
<feFlood flood-opacity="0" result="BackgroundImageFix"/>
<feColorMatrix in="SourceAlpha" type="matrix" values="0 0 0 0 0 0 0 0 0 0 0 0 0 0 0 0 0 0 127 0" result="hardAlpha"/>
<feOffset dx="1" dy="2"/>
<feGaussianBlur stdDeviation="1"/>
<feColorMatrix type="matrix" values="0 0 0 0 0.584314 0 0 0 0 0.317647 0 0 0 0 0 0 0 0 0.25 0"/>
<feBlend mode="normal" in2="BackgroundImageFix" result="effect1_dropShadow_1_132"/>
<feBlend mode="normal" in="SourceGraphic" in2="effect1_dropShadow_1_132" result="shape"/>
<feColorMatrix in="SourceAlpha" type="matrix" values="0 0 0 0 0 0 0 0 0 0 0 0 0 0 0 0 0 0 127 0" result="hardAlpha"/>
<feOffset dy="2"/>
<feGaussianBlur stdDeviation="1"/>
<feComposite in2="hardAlpha" operator="arithmetic" k2="-1" k3="1"/>
<feColorMatrix type="matrix" values="0 0 0 0 0.121569 0 0 0 0 0.466667 0 0 0 0 0.819608 0 0 0 1 0"/>
<feBlend mode="normal" in2="shape" result="effect2_innerShadow_1_132"/>
<feColorMatrix in="SourceAlpha" type="matrix" values="0 0 0 0 0 0 0 0 0 0 0 0 0 0 0 0 0 0 127 0" result="hardAlpha"/>
<feOffset dx="-2" dy="-2"/>
<feGaussianBlur stdDeviation="0.5"/>
<feComposite in2="hardAlpha" operator="arithmetic" k2="-1" k3="1"/>
<feColorMatrix type="matrix" values="0 0 0 0 0.8 0 0 0 0 0.968627 0 0 0 0 1 0 0 0 0.35 0"/>
<feBlend mode="overlay" in2="effect2_innerShadow_1_132" result="effect3_innerShadow_1_132"/>
</filter>
<filter id="filter1_ddii_1_132" x="24.3133" y="21.9878" width="11.5297" height="11.8178" filterUnits="userSpaceOnUse" color-interpolation-filters="sRGB">
<feFlood flood-opacity="0" result="BackgroundImageFix"/>
<feColorMatrix in="SourceAlpha" type="matrix" values="0 0 0 0 0 0 0 0 0 0 0 0 0 0 0 0 0 0 127 0" result="hardAlpha"/>
<feOffset dy="0.696983"/>
<feGaussianBlur stdDeviation="0.929311"/>
<feColorMatrix type="matrix" values="0 0 0 0 0.520833 0 0 0 0 0.0740885 0 0 0 0 0.0455729 0 0 0 0.45 0"/>
<feBlend mode="normal" in2="BackgroundImageFix" result="effect1_dropShadow_1_132"/>
<feColorMatrix in="SourceAlpha" type="matrix" values="0 0 0 0 0 0 0 0 0 0 0 0 0 0 0 0 0 0 127 0" result="hardAlpha"/>
<feOffset dy="0.232328"/>
<feGaussianBlur stdDeviation="0.696983"/>
<feColorMatrix type="matrix" values="0 0 0 0 0.225 0 0 0 0 0.0874875 0 0 0 0 0.0440625 0 0 0 0.25 0"/>
<feBlend mode="normal" in2="effect1_dropShadow_1_132" result="effect2_dropShadow_1_132"/>
<feBlend mode="normal" in="SourceGraphic" in2="effect2_dropShadow_1_132" result="shape"/>
<feColorMatrix in="SourceAlpha" type="matrix" values="0 0 0 0 0 0 0 0 0 0 0 0 0 0 0 0 0 0 127 0" result="hardAlpha"/>
<feOffset dy="-1.39397"/>
<feGaussianBlur stdDeviation="1.39397"/>
<feComposite in2="hardAlpha" operator="arithmetic" k2="-1" k3="1"/>
<feColorMatrix type="matrix" values="0 0 0 0 0.629167 0 0 0 0 0.206786 0 0 0 0 0.0734028 0 0 0 0.11 0"/>
<feBlend mode="normal" in2="shape" result="effect3_innerShadow_1_132"/>
<feColorMatrix in="SourceAlpha" type="matrix" values="0 0 0 0 0 0 0 0 0 0 0 0 0 0 0 0 0 0 127 0" result="hardAlpha"/>
<feOffset dy="-1.44972"/>
<feGaussianBlur stdDeviation="1.44972"/>
<feComposite in2="hardAlpha" operator="arithmetic" k2="-1" k3="1"/>
<feColorMatrix type="matrix" values="0 0 0 0 0.956863 0 0 0 0 0.72549 0 0 0 0 0.639216 0 0 0 0.14 0"/>
<feBlend mode="normal" in2="effect3_innerShadow_1_132" result="effect4_innerShadow_1_132"/>
</filter>
<filter id="filter2_ddii_1_132" x="6.3445" y="21.9878" width="11.5297" height="11.8178" filterUnits="userSpaceOnUse" color-interpolation-filters="sRGB">
<feFlood flood-opacity="0" result="BackgroundImageFix"/>
<feColorMatrix in="SourceAlpha" type="matrix" values="0 0 0 0 0 0 0 0 0 0 0 0 0 0 0 0 0 0 127 0" result="hardAlpha"/>
<feOffset dy="0.696983"/>
<feGaussianBlur stdDeviation="0.929311"/>
<feColorMatrix type="matrix" values="0 0 0 0 0.520833 0 0 0 0 0.0740885 0 0 0 0 0.0455729 0 0 0 0.45 0"/>
<feBlend mode="normal" in2="BackgroundImageFix" result="effect1_dropShadow_1_132"/>
<feColorMatrix in="SourceAlpha" type="matrix" values="0 0 0 0 0 0 0 0 0 0 0 0 0 0 0 0 0 0 127 0" result="hardAlpha"/>
<feOffset dy="0.232328"/>
<feGaussianBlur stdDeviation="0.696983"/>
<feColorMatrix type="matrix" values="0 0 0 0 0.225 0 0 0 0 0.0874875 0 0 0 0 0.0440625 0 0 0 0.25 0"/>
<feBlend mode="normal" in2="effect1_dropShadow_1_132" result="effect2_dropShadow_1_132"/>
<feBlend mode="normal" in="SourceGraphic" in2="effect2_dropShadow_1_132" result="shape"/>
<feColorMatrix in="SourceAlpha" type="matrix" values="0 0 0 0 0 0 0 0 0 0 0 0 0 0 0 0 0 0 127 0" result="hardAlpha"/>
<feOffset dy="-1.39397"/>
<feGaussianBlur stdDeviation="1.39397"/>
<feComposite in2="hardAlpha" operator="arithmetic" k2="-1" k3="1"/>
<feColorMatrix type="matrix" values="0 0 0 0 0.629167 0 0 0 0 0.206786 0 0 0 0 0.0734028 0 0 0 0.11 0"/>
<feBlend mode="normal" in2="shape" result="effect3_innerShadow_1_132"/>
<feColorMatrix in="SourceAlpha" type="matrix" values="0 0 0 0 0 0 0 0 0 0 0 0 0 0 0 0 0 0 127 0" result="hardAlpha"/>
<feOffset dy="-1.44972"/>
<feGaussianBlur stdDeviation="1.44972"/>
<feComposite in2="hardAlpha" operator="arithmetic" k2="-1" k3="1"/>
<feColorMatrix type="matrix" values="0 0 0 0 0.956863 0 0 0 0 0.72549 0 0 0 0 0.639216 0 0 0 0.14 0"/>
<feBlend mode="normal" in2="effect3_innerShadow_1_132" result="effect4_innerShadow_1_132"/>
</filter>
<filter id="filter3_ddii_1_132" x="4.51545" y="14.0475" width="14.6095" height="8.40559" filterUnits="userSpaceOnUse" color-interpolation-filters="sRGB">
<feFlood flood-opacity="0" result="BackgroundImageFix"/>
<feColorMatrix in="SourceAlpha" type="matrix" values="0 0 0 0 0 0 0 0 0 0 0 0 0 0 0 0 0 0 127 0" result="hardAlpha"/>
<feOffset dy="0.696983"/>
<feGaussianBlur stdDeviation="0.929311"/>
<feColorMatrix type="matrix" values="0 0 0 0 0.520833 0 0 0 0 0.0740885 0 0 0 0 0.0455729 0 0 0 0.45 0"/>
<feBlend mode="normal" in2="BackgroundImageFix" result="effect1_dropShadow_1_132"/>
<feColorMatrix in="SourceAlpha" type="matrix" values="0 0 0 0 0 0 0 0 0 0 0 0 0 0 0 0 0 0 127 0" result="hardAlpha"/>
<feOffset dy="0.232328"/>
<feGaussianBlur stdDeviation="0.696983"/>
<feColorMatrix type="matrix" values="0 0 0 0 0.225 0 0 0 0 0.0874875 0 0 0 0 0.0440625 0 0 0 0.25 0"/>
<feBlend mode="normal" in2="effect1_dropShadow_1_132" result="effect2_dropShadow_1_132"/>
<feBlend mode="normal" in="SourceGraphic" in2="effect2_dropShadow_1_132" result="shape"/>
<feColorMatrix in="SourceAlpha" type="matrix" values="0 0 0 0 0 0 0 0 0 0 0 0 0 0 0 0 0 0 127 0" result="hardAlpha"/>
<feOffset dy="-1.39397"/>
<feGaussianBlur stdDeviation="1.39397"/>
<feComposite in2="hardAlpha" operator="arithmetic" k2="-1" k3="1"/>
<feColorMatrix type="matrix" values="0 0 0 0 0.629167 0 0 0 0 0.206786 0 0 0 0 0.0734028 0 0 0 0.11 0"/>
<feBlend mode="normal" in2="shape" result="effect3_innerShadow_1_132"/>
<feColorMatrix in="SourceAlpha" type="matrix" values="0 0 0 0 0 0 0 0 0 0 0 0 0 0 0 0 0 0 127 0" result="hardAlpha"/>
<feOffset dy="-1.44972"/>
<feGaussianBlur stdDeviation="1.44972"/>
<feComposite in2="hardAlpha" operator="arithmetic" k2="-1" k3="1"/>
<feColorMatrix type="matrix" values="0 0 0 0 0.956863 0 0 0 0 0.72549 0 0 0 0 0.639216 0 0 0 0.14 0"/>
<feBlend mode="normal" in2="effect3_innerShadow_1_132" result="effect4_innerShadow_1_132"/>
</filter>
<filter id="filter4_ddii_1_132" x="23.0374" y="13.9694" width="14.6347" height="8.41337" filterUnits="userSpaceOnUse" color-interpolation-filters="sRGB">
<feFlood flood-opacity="0" result="BackgroundImageFix"/>
<feColorMatrix in="SourceAlpha" type="matrix" values="0 0 0 0 0 0 0 0 0 0 0 0 0 0 0 0 0 0 127 0" result="hardAlpha"/>
<feOffset dy="0.696983"/>
<feGaussianBlur stdDeviation="0.929311"/>
<feColorMatrix type="matrix" values="0 0 0 0 0.520833 0 0 0 0 0.0740885 0 0 0 0 0.0455729 0 0 0 0.45 0"/>
<feBlend mode="normal" in2="BackgroundImageFix" result="effect1_dropShadow_1_132"/>
<feColorMatrix in="SourceAlpha" type="matrix" values="0 0 0 0 0 0 0 0 0 0 0 0 0 0 0 0 0 0 127 0" result="hardAlpha"/>
<feOffset dy="0.232328"/>
<feGaussianBlur stdDeviation="0.696983"/>
<feColorMatrix type="matrix" values="0 0 0 0 0.225 0 0 0 0 0.0874875 0 0 0 0 0.0440625 0 0 0 0.25 0"/>
<feBlend mode="normal" in2="effect1_dropShadow_1_132" result="effect2_dropShadow_1_132"/>
<feBlend mode="normal" in="SourceGraphic" in2="effect2_dropShadow_1_132" result="shape"/>
<feColorMatrix in="SourceAlpha" type="matrix" values="0 0 0 0 0 0 0 0 0 0 0 0 0 0 0 0 0 0 127 0" result="hardAlpha"/>
<feOffset dy="-1.39397"/>
<feGaussianBlur stdDeviation="1.39397"/>
<feComposite in2="hardAlpha" operator="arithmetic" k2="-1" k3="1"/>
<feColorMatrix type="matrix" values="0 0 0 0 0.629167 0 0 0 0 0.206786 0 0 0 0 0.0734028 0 0 0 0.11 0"/>
<feBlend mode="normal" in2="shape" result="effect3_innerShadow_1_132"/>
<feColorMatrix in="SourceAlpha" type="matrix" values="0 0 0 0 0 0 0 0 0 0 0 0 0 0 0 0 0 0 127 0" result="hardAlpha"/>
<feOffset dy="-1.44972"/>
<feGaussianBlur stdDeviation="1.44972"/>
<feComposite in2="hardAlpha" operator="arithmetic" k2="-1" k3="1"/>
<feColorMatrix type="matrix" values="0 0 0 0 0.956863 0 0 0 0 0.72549 0 0 0 0 0.639216 0 0 0 0.14 0"/>
<feBlend mode="normal" in2="effect3_innerShadow_1_132" result="effect4_innerShadow_1_132"/>
</filter>
<filter id="filter5_ii_1_132" x="15.3004" y="35.4403" width="16.0298" height="11.4592" filterUnits="userSpaceOnUse" color-interpolation-filters="sRGB">
<feFlood flood-opacity="0" result="BackgroundImageFix"/>
<feBlend mode="normal" in="SourceGraphic" in2="BackgroundImageFix" result="shape"/>
<feColorMatrix in="SourceAlpha" type="matrix" values="0 0 0 0 0 0 0 0 0 0 0 0 0 0 0 0 0 0 127 0" result="hardAlpha"/>
<feOffset dy="1"/>
<feGaussianBlur stdDeviation="1"/>
<feComposite in2="hardAlpha" operator="arithmetic" k2="-1" k3="1"/>
<feColorMatrix type="matrix" values="0 0 0 0 0 0 0 0 0 0 0 0 0 0 0 0 0 0 0.25 0"/>
<feBlend mode="normal" in2="shape" result="effect1_innerShadow_1_132"/>
<feColorMatrix in="SourceAlpha" type="matrix" values="0 0 0 0 0 0 0 0 0 0 0 0 0 0 0 0 0 0 127 0" result="hardAlpha"/>
<feOffset dy="4"/>
<feGaussianBlur stdDeviation="2"/>
<feComposite in2="hardAlpha" operator="arithmetic" k2="-1" k3="1"/>
<feColorMatrix type="matrix" values="0 0 0 0 0 0 0 0 0 0 0 0 0 0 0 0 0 0 0.15 0"/>
<feBlend mode="normal" in2="effect1_innerShadow_1_132" result="effect2_innerShadow_1_132"/>
</filter>
<radialGradient id="paint0_radial_1_132" cx="0" cy="0" r="1" gradientUnits="userSpaceOnUse" gradientTransform="translate(24.6502 12.4067) rotate(90) scale(13.6427)">
<stop stop-color="#FDF3DF"/>
<stop offset="1" stop-color="#FFC533"/>
</radialGradient>
<radialGradient id="paint1_radial_1_132" cx="0" cy="0" r="1" gradientUnits="userSpaceOnUse" gradientTransform="translate(38.2929 29.1978) rotate(172.648) scale(10.9341)">
<stop stop-color="#FF5C28"/>
<stop offset="1" stop-color="#FF5C28" stop-opacity="0"/>
</radialGradient>
<radialGradient id="paint2_radial_1_132" cx="0" cy="0" r="1" gradientUnits="userSpaceOnUse" gradientTransform="translate(13.4328 29.8507) rotate(33.6901) scale(9.41748)">
<stop stop-color="#FF5C28"/>
<stop offset="1" stop-color="#FF5C28" stop-opacity="0"/>
</radialGradient>
<linearGradient id="paint3_linear_1_132" x1="41.8359" y1="19.6875" x2="41.8359" y2="34.414" gradientUnits="userSpaceOnUse">
<stop stop-color="#0047B3"/>
<stop offset="0.765625" stop-color="#48BDFF"/>
<stop offset="1" stop-color="#A2EEFF"/>
</linearGradient>
<radialGradient id="paint4_radial_1_132" cx="0" cy="0" r="1" gradientUnits="userSpaceOnUse" gradientTransform="translate(41.116 25.5623) rotate(97.8444) scale(8.46665 5.49291)">
<stop stop-color="#CCF7FF"/>
<stop offset="0.519791" stop-color="#48BDFF"/>
<stop offset="0.676041" stop-color="#289AD8"/>
<stop offset="1" stop-color="#48BDFF" stop-opacity="0"/>
</radialGradient>
<radialGradient id="paint5_radial_1_132" cx="0" cy="0" r="1" gradientUnits="userSpaceOnUse" gradientTransform="translate(40.5382 23.8269) rotate(96.7022) scale(4.95059 3.21176)">
<stop stop-color="#FCFFFF"/>
<stop offset="1" stop-color="#CCF7FF" stop-opacity="0"/>
</radialGradient>
<radialGradient id="paint6_radial_1_132" cx="0" cy="0" r="1" gradientUnits="userSpaceOnUse" gradientTransform="translate(29.0842 25.0433) rotate(67.8858) scale(5.37468 5.16332)">
<stop stop-color="white"/>
<stop offset="1" stop-opacity="0"/>
</radialGradient>
<radialGradient id="paint7_radial_1_132" cx="0" cy="0" r="1" gradientUnits="userSpaceOnUse" gradientTransform="translate(11.1155 25.0433) rotate(67.8858) scale(5.37468 5.16332)">
<stop stop-color="white"/>
<stop offset="1" stop-opacity="0"/>
</radialGradient>
<radialGradient id="paint8_radial_1_132" cx="0" cy="0" r="1" gradientUnits="userSpaceOnUse" gradientTransform="translate(10.4345 16.4016) rotate(44.8328) scale(3.9778 5.47842)">
<stop stop-color="white"/>
<stop offset="1" stop-opacity="0"/>
</radialGradient>
<radialGradient id="paint9_radial_1_132" cx="0" cy="0" r="1" gradientUnits="userSpaceOnUse" gradientTransform="translate(28.9658 16.3251) rotate(44.8173) scale(3.98591 5.48957)">
<stop stop-color="white"/>
<stop offset="1" stop-opacity="0"/>
</radialGradient>
<radialGradient id="paint10_radial_1_132" cx="0" cy="0" r="1" gradientUnits="userSpaceOnUse" gradientTransform="translate(23.1279 37.6958) rotate(90) scale(4.22133 17.1926)">
<stop/>
<stop offset="1" stop-opacity="0"/>
</radialGradient>
</defs>
</svg>
