<svg width="45" height="45" viewBox="0 0 45 45" fill="none" xmlns="http://www.w3.org/2000/svg">
<path d="M45 22.5C45 34.9263 34.9263 45 22.5 45C10.075 45 0 34.9263 0 22.5C0 10.075 10.075 0 22.5 0C34.9263 0 45 10.075 45 22.5Z" fill="url(#paint0_radial_1_144)"/>
<path d="M45 22.5C45 34.9263 34.9263 45 22.5 45C10.075 45 0 34.9263 0 22.5C0 10.075 10.075 0 22.5 0C34.9263 0 45 10.075 45 22.5Z" fill="url(#paint1_radial_1_144)" fill-opacity="0.4"/>
<path d="M45 22.5C45 34.9263 34.9263 45 22.5 45C10.075 45 0 34.9263 0 22.5C0 10.075 10.075 0 22.5 0C34.9263 0 45 10.075 45 22.5Z" fill="url(#paint2_radial_1_144)" fill-opacity="0.4"/>
<g filter="url(#filter0_ddii_1_144)">
<path d="M27.75 10.75C31.8288 16.1875 37.27 16.25 37.5 16.25C38.1875 16.25 38.7425 15.695 38.745 15.0063C38.7488 14.32 38.1938 13.7575 37.5063 13.75C37.325 13.7488 33.05 13.6513 29.7488 9.25001C29.3338 8.69751 28.5513 8.58376 28 9.00001C27.4475 9.41376 27.335 10.1975 27.75 10.75Z" fill="#5A3A13"/>
<path d="M27.75 10.75C31.8288 16.1875 37.27 16.25 37.5 16.25C38.1875 16.25 38.7425 15.695 38.745 15.0063C38.7488 14.32 38.1938 13.7575 37.5063 13.75C37.325 13.7488 33.05 13.6513 29.7488 9.25001C29.3338 8.69751 28.5513 8.58376 28 9.00001C27.4475 9.41376 27.335 10.1975 27.75 10.75Z" fill="url(#paint3_radial_1_144)" style="mix-blend-mode:soft-light"/>
</g>
<g filter="url(#filter1_ddii_1_144)">
<path d="M7.5 16.25C6.81 16.25 6.25 15.69 6.25 15C6.25 14.3112 6.80625 13.7525 7.495 13.75C7.69 13.7475 11.9563 13.6425 15.2513 9.25C15.665 8.7 16.4475 8.585 17.0013 9C17.5538 9.41375 17.665 10.1975 17.2513 10.75C13.1725 16.1875 7.73 16.25 7.5 16.25Z" fill="#5A3A13"/>
<path d="M7.5 16.25C6.81 16.25 6.25 15.69 6.25 15C6.25 14.3112 6.80625 13.7525 7.495 13.75C7.69 13.7475 11.9563 13.6425 15.2513 9.25C15.665 8.7 16.4475 8.585 17.0013 9C17.5538 9.41375 17.665 10.1975 17.2513 10.75C13.1725 16.1875 7.73 16.25 7.5 16.25Z" fill="url(#paint4_radial_1_144)" style="mix-blend-mode:soft-light"/>
</g>
<g filter="url(#filter2_ddii_1_144)">
<path d="M19.6338 21.6162C15.565 17.5475 9.02626 17.5 8.75001 17.5C8.06001 17.5 7.50126 18.0588 7.50126 18.7475C7.50001 19.4375 8.05876 19.9975 8.74876 20C8.78126 20 10.6963 20.02 12.95 20.67C12.6738 20.9962 12.5 21.4137 12.5 21.875C12.5 22.0287 12.5238 22.1762 12.5588 22.32C9.16376 23.4675 6.89251 25.1425 6.75001 25.25C6.19751 25.6637 6.08626 26.4475 6.50001 26.9988C6.74501 27.3275 7.12126 27.5 7.50126 27.5C7.76126 27.5 8.02501 27.4187 8.25001 27.25C8.29626 27.215 12.9838 23.75 18.75 23.75C19.255 23.75 19.7113 23.4462 19.905 22.9787C20.0988 22.5112 19.9913 21.9737 19.6338 21.6162Z" fill="#5A3A13"/>
<path d="M19.6338 21.6162C15.565 17.5475 9.02626 17.5 8.75001 17.5C8.06001 17.5 7.50126 18.0588 7.50126 18.7475C7.50001 19.4375 8.05876 19.9975 8.74876 20C8.78126 20 10.6963 20.02 12.95 20.67C12.6738 20.9962 12.5 21.4137 12.5 21.875C12.5 22.0287 12.5238 22.1762 12.5588 22.32C9.16376 23.4675 6.89251 25.1425 6.75001 25.25C6.19751 25.6637 6.08626 26.4475 6.50001 26.9988C6.74501 27.3275 7.12126 27.5 7.50126 27.5C7.76126 27.5 8.02501 27.4187 8.25001 27.25C8.29626 27.215 12.9838 23.75 18.75 23.75C19.255 23.75 19.7113 23.4462 19.905 22.9787C20.0988 22.5112 19.9913 21.9737 19.6338 21.6162Z" fill="url(#paint5_radial_1_144)" style="mix-blend-mode:soft-light"/>
</g>
<g filter="url(#filter3_ii_1_144)">
<path d="M22.5 37.5C22.12 37.5 21.7613 37.3275 21.5238 37.0313L19.1441 34.0571C18.3273 33.0362 16.7668 33.0607 15.9824 34.1067L14.75 35.75C14.5325 36.04 14.2 36.2213 13.8388 36.2463C13.4763 36.2725 13.1213 36.14 12.8663 35.8838L11.6163 34.6338C11.1275 34.145 11.1275 33.355 11.6163 32.8663C12.105 32.3775 12.895 32.3775 13.3838 32.8663C13.5058 32.9883 13.7077 32.974 13.8112 32.8359L16.5 29.25C16.7325 28.94 17.0938 28.755 17.48 28.75C17.8488 28.7375 18.2338 28.9163 18.475 29.2188L20.9382 32.297C21.7389 33.2976 23.261 33.2975 24.0615 32.2967L26.5238 29.2188C26.765 28.9175 27.1288 28.75 27.52 28.75C27.9075 28.7563 28.2688 28.94 28.5 29.25L31.19 32.8347C31.2936 32.9728 31.4954 32.9871 31.6175 32.865C32.1063 32.3763 32.8963 32.3763 33.385 32.865C33.8738 33.3538 33.8738 34.1438 33.385 34.6325L32.135 35.8825C31.8788 36.1388 31.5363 36.275 31.1625 36.245C30.8013 36.2188 30.4688 36.0388 30.2513 35.7488L29.018 34.105C28.2334 33.0592 26.6729 33.035 25.8563 34.056L23.4775 37.03C23.2388 37.3275 22.88 37.5 22.5 37.5Z" fill="#9F5600"/>
<path d="M22.5 37.5C22.12 37.5 21.7613 37.3275 21.5238 37.0313L19.1441 34.0571C18.3273 33.0362 16.7668 33.0607 15.9824 34.1067L14.75 35.75C14.5325 36.04 14.2 36.2213 13.8388 36.2463C13.4763 36.2725 13.1213 36.14 12.8663 35.8838L11.6163 34.6338C11.1275 34.145 11.1275 33.355 11.6163 32.8663C12.105 32.3775 12.895 32.3775 13.3838 32.8663C13.5058 32.9883 13.7077 32.974 13.8112 32.8359L16.5 29.25C16.7325 28.94 17.0938 28.755 17.48 28.75C17.8488 28.7375 18.2338 28.9163 18.475 29.2188L20.9382 32.297C21.7389 33.2976 23.261 33.2975 24.0615 32.2967L26.5238 29.2188C26.765 28.9175 27.1288 28.75 27.52 28.75C27.9075 28.7563 28.2688 28.94 28.5 29.25L31.19 32.8347C31.2936 32.9728 31.4954 32.9871 31.6175 32.865C32.1063 32.3763 32.8963 32.3763 33.385 32.865C33.8738 33.3538 33.8738 34.1438 33.385 34.6325L32.135 35.8825C31.8788 36.1388 31.5363 36.275 31.1625 36.245C30.8013 36.2188 30.4688 36.0388 30.2513 35.7488L29.018 34.105C28.2334 33.0592 26.6729 33.035 25.8563 34.056L23.4775 37.03C23.2388 37.3275 22.88 37.5 22.5 37.5Z" fill="url(#paint6_radial_1_144)" fill-opacity="0.5"/>
</g>
<path d="M21.1333 37.3437L21.1336 37.344C21.4659 37.7585 21.9681 38 22.5 38C23.0323 38 23.5342 37.7582 23.8675 37.343L23.868 37.3423L26.2468 34.3683C26.8592 33.6026 28.0296 33.6207 28.618 34.405L29.8513 36.0488C29.8513 36.0488 29.8513 36.0488 29.8513 36.0489C30.1561 36.4552 30.621 36.7065 31.1244 36.7436C31.6507 36.7853 32.1343 36.5903 32.4886 36.2361L33.7386 34.9861C34.4226 34.3021 34.4226 33.1955 33.7386 32.5115C33.1138 31.8867 32.1365 31.8326 31.4507 32.3491L28.9008 28.9511C28.9007 28.951 28.9006 28.9509 28.9006 28.9508C28.5759 28.5158 28.0693 28.2588 27.5281 28.2501V28.25H27.52C26.9846 28.25 26.4743 28.4807 26.1335 28.9062L26.1333 28.9065L23.6711 31.9844C23.0707 32.735 21.9291 32.7351 21.3286 31.9846L18.8659 28.907C18.8658 28.9069 18.8657 28.9068 18.8656 28.9067C18.5301 28.4862 17.9983 28.234 17.4684 28.2502C16.9275 28.2588 16.4236 28.5186 16.1 28.95L16.1 28.9501L13.5504 32.3502C12.8646 31.8339 11.8874 31.888 11.2627 32.5127C10.5787 33.1967 10.5787 34.3033 11.2627 34.9873L11.6163 34.6338L11.2627 34.9873L12.5118 36.2365C12.512 36.2367 12.5122 36.2368 12.5124 36.237C12.8703 36.5964 13.3675 36.7815 13.8741 36.745C14.3804 36.7098 14.8458 36.4557 15.15 36.05L15.15 36.05L16.3824 34.4067C16.9707 33.6222 18.1411 33.6038 18.7537 34.3695L21.1333 37.3437Z" stroke="#FEC535"/>
<g filter="url(#filter4_ddii_1_144)">
<path d="M32.4425 22.32C35.8363 23.4675 38.1075 25.1425 38.25 25.25C38.8013 25.6637 38.9138 26.445 38.5013 26.9988C38.255 27.325 37.88 27.4988 37.4988 27.4988C37.2388 27.4988 36.9762 27.4187 36.7512 27.2513C36.7037 27.215 31.9875 23.75 26.25 23.75C25.745 23.75 25.2875 23.4462 25.095 22.9787C24.9013 22.5112 25.0087 21.9737 25.3662 21.6162C29.4362 17.5475 35.9738 17.5 36.25 17.5C36.94 17.5 37.4975 18.0588 37.4988 18.7475C37.5 19.4375 36.9413 19.9975 36.2525 20C36.2188 20 34.3038 20.02 32.0513 20.67C32.3263 20.9962 32.5 21.4137 32.5 21.875C32.5 22.0287 32.475 22.1762 32.4425 22.32Z" fill="#5A3A13"/>
<path d="M32.4425 22.32C35.8363 23.4675 38.1075 25.1425 38.25 25.25C38.8013 25.6637 38.9138 26.445 38.5013 26.9988C38.255 27.325 37.88 27.4988 37.4988 27.4988C37.2388 27.4988 36.9762 27.4187 36.7512 27.2513C36.7037 27.215 31.9875 23.75 26.25 23.75C25.745 23.75 25.2875 23.4462 25.095 22.9787C24.9013 22.5112 25.0087 21.9737 25.3662 21.6162C29.4362 17.5475 35.9738 17.5 36.25 17.5C36.94 17.5 37.4975 18.0588 37.4988 18.7475C37.5 19.4375 36.9413 19.9975 36.2525 20C36.2188 20 34.3038 20.02 32.0513 20.67C32.3263 20.9962 32.5 21.4137 32.5 21.875C32.5 22.0287 32.475 22.1762 32.4425 22.32Z" fill="url(#paint7_radial_1_144)" style="mix-blend-mode:soft-light"/>
</g>
<defs>
<filter id="filter0_ddii_1_144" x="25.6409" y="7.29928" width="14.9627" height="11.5063" filterUnits="userSpaceOnUse" color-interpolation-filters="sRGB">
<feFlood flood-opacity="0" result="BackgroundImageFix"/>
<feColorMatrix in="SourceAlpha" type="matrix" values="0 0 0 0 0 0 0 0 0 0 0 0 0 0 0 0 0 0 127 0" result="hardAlpha"/>
<feOffset dy="0.696983"/>
<feGaussianBlur stdDeviation="0.929311"/>
<feColorMatrix type="matrix" values="0 0 0 0 0.520833 0 0 0 0 0.0740885 0 0 0 0 0.0455729 0 0 0 0.45 0"/>
<feBlend mode="normal" in2="BackgroundImageFix" result="effect1_dropShadow_1_144"/>
<feColorMatrix in="SourceAlpha" type="matrix" values="0 0 0 0 0 0 0 0 0 0 0 0 0 0 0 0 0 0 127 0" result="hardAlpha"/>
<feOffset dy="0.232328"/>
<feGaussianBlur stdDeviation="0.696983"/>
<feColorMatrix type="matrix" values="0 0 0 0 0.225 0 0 0 0 0.0874875 0 0 0 0 0.0440625 0 0 0 0.25 0"/>
<feBlend mode="normal" in2="effect1_dropShadow_1_144" result="effect2_dropShadow_1_144"/>
<feBlend mode="normal" in="SourceGraphic" in2="effect2_dropShadow_1_144" result="shape"/>
<feColorMatrix in="SourceAlpha" type="matrix" values="0 0 0 0 0 0 0 0 0 0 0 0 0 0 0 0 0 0 127 0" result="hardAlpha"/>
<feOffset dy="-1.39397"/>
<feGaussianBlur stdDeviation="1.39397"/>
<feComposite in2="hardAlpha" operator="arithmetic" k2="-1" k3="1"/>
<feColorMatrix type="matrix" values="0 0 0 0 0.629167 0 0 0 0 0.206786 0 0 0 0 0.0734028 0 0 0 0.11 0"/>
<feBlend mode="normal" in2="shape" result="effect3_innerShadow_1_144"/>
<feColorMatrix in="SourceAlpha" type="matrix" values="0 0 0 0 0 0 0 0 0 0 0 0 0 0 0 0 0 0 127 0" result="hardAlpha"/>
<feOffset dy="-1.44972"/>
<feGaussianBlur stdDeviation="1.44972"/>
<feComposite in2="hardAlpha" operator="arithmetic" k2="-1" k3="1"/>
<feColorMatrix type="matrix" values="0 0 0 0 0.956863 0 0 0 0 0.72549 0 0 0 0 0.639216 0 0 0 0.14 0"/>
<feBlend mode="normal" in2="effect3_innerShadow_1_144" result="effect4_innerShadow_1_144"/>
</filter>
<filter id="filter1_ddii_1_144" x="4.39138" y="7.30053" width="14.9684" height="11.5051" filterUnits="userSpaceOnUse" color-interpolation-filters="sRGB">
<feFlood flood-opacity="0" result="BackgroundImageFix"/>
<feColorMatrix in="SourceAlpha" type="matrix" values="0 0 0 0 0 0 0 0 0 0 0 0 0 0 0 0 0 0 127 0" result="hardAlpha"/>
<feOffset dy="0.696983"/>
<feGaussianBlur stdDeviation="0.929311"/>
<feColorMatrix type="matrix" values="0 0 0 0 0.520833 0 0 0 0 0.0740885 0 0 0 0 0.0455729 0 0 0 0.45 0"/>
<feBlend mode="normal" in2="BackgroundImageFix" result="effect1_dropShadow_1_144"/>
<feColorMatrix in="SourceAlpha" type="matrix" values="0 0 0 0 0 0 0 0 0 0 0 0 0 0 0 0 0 0 127 0" result="hardAlpha"/>
<feOffset dy="0.232328"/>
<feGaussianBlur stdDeviation="0.696983"/>
<feColorMatrix type="matrix" values="0 0 0 0 0.225 0 0 0 0 0.0874875 0 0 0 0 0.0440625 0 0 0 0.25 0"/>
<feBlend mode="normal" in2="effect1_dropShadow_1_144" result="effect2_dropShadow_1_144"/>
<feBlend mode="normal" in="SourceGraphic" in2="effect2_dropShadow_1_144" result="shape"/>
<feColorMatrix in="SourceAlpha" type="matrix" values="0 0 0 0 0 0 0 0 0 0 0 0 0 0 0 0 0 0 127 0" result="hardAlpha"/>
<feOffset dy="-1.39397"/>
<feGaussianBlur stdDeviation="1.39397"/>
<feComposite in2="hardAlpha" operator="arithmetic" k2="-1" k3="1"/>
<feColorMatrix type="matrix" values="0 0 0 0 0.629167 0 0 0 0 0.206786 0 0 0 0 0.0734028 0 0 0 0.11 0"/>
<feBlend mode="normal" in2="shape" result="effect3_innerShadow_1_144"/>
<feColorMatrix in="SourceAlpha" type="matrix" values="0 0 0 0 0 0 0 0 0 0 0 0 0 0 0 0 0 0 127 0" result="hardAlpha"/>
<feOffset dy="-1.44972"/>
<feGaussianBlur stdDeviation="1.44972"/>
<feComposite in2="hardAlpha" operator="arithmetic" k2="-1" k3="1"/>
<feColorMatrix type="matrix" values="0 0 0 0 0.956863 0 0 0 0 0.72549 0 0 0 0 0.639216 0 0 0 0.14 0"/>
<feBlend mode="normal" in2="effect3_innerShadow_1_144" result="effect4_innerShadow_1_144"/>
</filter>
<filter id="filter2_ddii_1_144" x="4.39145" y="16.0503" width="17.4674" height="14.0053" filterUnits="userSpaceOnUse" color-interpolation-filters="sRGB">
<feFlood flood-opacity="0" result="BackgroundImageFix"/>
<feColorMatrix in="SourceAlpha" type="matrix" values="0 0 0 0 0 0 0 0 0 0 0 0 0 0 0 0 0 0 127 0" result="hardAlpha"/>
<feOffset dy="0.696983"/>
<feGaussianBlur stdDeviation="0.929311"/>
<feColorMatrix type="matrix" values="0 0 0 0 0.520833 0 0 0 0 0.0740885 0 0 0 0 0.0455729 0 0 0 0.45 0"/>
<feBlend mode="normal" in2="BackgroundImageFix" result="effect1_dropShadow_1_144"/>
<feColorMatrix in="SourceAlpha" type="matrix" values="0 0 0 0 0 0 0 0 0 0 0 0 0 0 0 0 0 0 127 0" result="hardAlpha"/>
<feOffset dy="0.232328"/>
<feGaussianBlur stdDeviation="0.696983"/>
<feColorMatrix type="matrix" values="0 0 0 0 0.225 0 0 0 0 0.0874875 0 0 0 0 0.0440625 0 0 0 0.25 0"/>
<feBlend mode="normal" in2="effect1_dropShadow_1_144" result="effect2_dropShadow_1_144"/>
<feBlend mode="normal" in="SourceGraphic" in2="effect2_dropShadow_1_144" result="shape"/>
<feColorMatrix in="SourceAlpha" type="matrix" values="0 0 0 0 0 0 0 0 0 0 0 0 0 0 0 0 0 0 127 0" result="hardAlpha"/>
<feOffset dy="-1.39397"/>
<feGaussianBlur stdDeviation="1.39397"/>
<feComposite in2="hardAlpha" operator="arithmetic" k2="-1" k3="1"/>
<feColorMatrix type="matrix" values="0 0 0 0 0.629167 0 0 0 0 0.206786 0 0 0 0 0.0734028 0 0 0 0.11 0"/>
<feBlend mode="normal" in2="shape" result="effect3_innerShadow_1_144"/>
<feColorMatrix in="SourceAlpha" type="matrix" values="0 0 0 0 0 0 0 0 0 0 0 0 0 0 0 0 0 0 127 0" result="hardAlpha"/>
<feOffset dy="-1.44972"/>
<feGaussianBlur stdDeviation="1.44972"/>
<feComposite in2="hardAlpha" operator="arithmetic" k2="-1" k3="1"/>
<feColorMatrix type="matrix" values="0 0 0 0 0.956863 0 0 0 0 0.72549 0 0 0 0 0.639216 0 0 0 0.14 0"/>
<feBlend mode="normal" in2="effect3_innerShadow_1_144" result="effect4_innerShadow_1_144"/>
</filter>
<filter id="filter3_ii_1_144" x="10.2497" y="27.7494" width="24.5019" height="14.7506" filterUnits="userSpaceOnUse" color-interpolation-filters="sRGB">
<feFlood flood-opacity="0" result="BackgroundImageFix"/>
<feBlend mode="normal" in="SourceGraphic" in2="BackgroundImageFix" result="shape"/>
<feColorMatrix in="SourceAlpha" type="matrix" values="0 0 0 0 0 0 0 0 0 0 0 0 0 0 0 0 0 0 127 0" result="hardAlpha"/>
<feOffset dy="1"/>
<feGaussianBlur stdDeviation="1"/>
<feComposite in2="hardAlpha" operator="arithmetic" k2="-1" k3="1"/>
<feColorMatrix type="matrix" values="0 0 0 0 0 0 0 0 0 0 0 0 0 0 0 0 0 0 0.25 0"/>
<feBlend mode="normal" in2="shape" result="effect1_innerShadow_1_144"/>
<feColorMatrix in="SourceAlpha" type="matrix" values="0 0 0 0 0 0 0 0 0 0 0 0 0 0 0 0 0 0 127 0" result="hardAlpha"/>
<feOffset dy="4"/>
<feGaussianBlur stdDeviation="2"/>
<feComposite in2="hardAlpha" operator="arithmetic" k2="-1" k3="1"/>
<feColorMatrix type="matrix" values="0 0 0 0 0 0 0 0 0 0 0 0 0 0 0 0 0 0 0.15 0"/>
<feBlend mode="normal" in2="effect1_innerShadow_1_144" result="effect2_innerShadow_1_144"/>
</filter>
<filter id="filter4_ddii_1_144" x="23.1411" y="16.0503" width="17.4673" height="14.0041" filterUnits="userSpaceOnUse" color-interpolation-filters="sRGB">
<feFlood flood-opacity="0" result="BackgroundImageFix"/>
<feColorMatrix in="SourceAlpha" type="matrix" values="0 0 0 0 0 0 0 0 0 0 0 0 0 0 0 0 0 0 127 0" result="hardAlpha"/>
<feOffset dy="0.696983"/>
<feGaussianBlur stdDeviation="0.929311"/>
<feColorMatrix type="matrix" values="0 0 0 0 0.520833 0 0 0 0 0.0740885 0 0 0 0 0.0455729 0 0 0 0.45 0"/>
<feBlend mode="normal" in2="BackgroundImageFix" result="effect1_dropShadow_1_144"/>
<feColorMatrix in="SourceAlpha" type="matrix" values="0 0 0 0 0 0 0 0 0 0 0 0 0 0 0 0 0 0 127 0" result="hardAlpha"/>
<feOffset dy="0.232328"/>
<feGaussianBlur stdDeviation="0.696983"/>
<feColorMatrix type="matrix" values="0 0 0 0 0.225 0 0 0 0 0.0874875 0 0 0 0 0.0440625 0 0 0 0.25 0"/>
<feBlend mode="normal" in2="effect1_dropShadow_1_144" result="effect2_dropShadow_1_144"/>
<feBlend mode="normal" in="SourceGraphic" in2="effect2_dropShadow_1_144" result="shape"/>
<feColorMatrix in="SourceAlpha" type="matrix" values="0 0 0 0 0 0 0 0 0 0 0 0 0 0 0 0 0 0 127 0" result="hardAlpha"/>
<feOffset dy="-1.39397"/>
<feGaussianBlur stdDeviation="1.39397"/>
<feComposite in2="hardAlpha" operator="arithmetic" k2="-1" k3="1"/>
<feColorMatrix type="matrix" values="0 0 0 0 0.629167 0 0 0 0 0.206786 0 0 0 0 0.0734028 0 0 0 0.11 0"/>
<feBlend mode="normal" in2="shape" result="effect3_innerShadow_1_144"/>
<feColorMatrix in="SourceAlpha" type="matrix" values="0 0 0 0 0 0 0 0 0 0 0 0 0 0 0 0 0 0 127 0" result="hardAlpha"/>
<feOffset dy="-1.44972"/>
<feGaussianBlur stdDeviation="1.44972"/>
<feComposite in2="hardAlpha" operator="arithmetic" k2="-1" k3="1"/>
<feColorMatrix type="matrix" values="0 0 0 0 0.956863 0 0 0 0 0.72549 0 0 0 0 0.639216 0 0 0 0.14 0"/>
<feBlend mode="normal" in2="effect3_innerShadow_1_144" result="effect4_innerShadow_1_144"/>
</filter>
<radialGradient id="paint0_radial_1_144" cx="0" cy="0" r="1" gradientUnits="userSpaceOnUse" gradientTransform="translate(22.1642 10.4104) rotate(90) scale(13.097)">
<stop stop-color="#FDF3DF"/>
<stop offset="1" stop-color="#FFC533"/>
</radialGradient>
<radialGradient id="paint1_radial_1_144" cx="0" cy="0" r="1" gradientUnits="userSpaceOnUse" gradientTransform="translate(35.2612 26.5298) rotate(172.648) scale(10.4968)">
<stop stop-color="#FF5C28"/>
<stop offset="1" stop-color="#FF5C28" stop-opacity="0"/>
</radialGradient>
<radialGradient id="paint2_radial_1_144" cx="0" cy="0" r="1" gradientUnits="userSpaceOnUse" gradientTransform="translate(11.3955 27.1567) rotate(33.6901) scale(9.04078)">
<stop stop-color="#FF5C28"/>
<stop offset="1" stop-color="#FF5C28" stop-opacity="0"/>
</radialGradient>
<radialGradient id="paint3_radial_1_144" cx="0" cy="0" r="1" gradientUnits="userSpaceOnUse" gradientTransform="translate(31.6917 10.2907) rotate(58.6505) scale(5.59803 6.85117)">
<stop stop-color="white"/>
<stop offset="1" stop-opacity="0"/>
</radialGradient>
<radialGradient id="paint4_radial_1_144" cx="0" cy="0" r="1" gradientUnits="userSpaceOnUse" gradientTransform="translate(10.4442 10.2917) rotate(58.6333) scale(5.5981 6.85339)">
<stop stop-color="white"/>
<stop offset="1" stop-opacity="0"/>
</radialGradient>
<radialGradient id="paint5_radial_1_144" cx="0" cy="0" r="1" gradientUnits="userSpaceOnUse" gradientTransform="translate(11.3759 19.5554) rotate(60.8065) scale(7.30088 8.56317)">
<stop stop-color="white"/>
<stop offset="1" stop-opacity="0"/>
</radialGradient>
<radialGradient id="paint6_radial_1_144" cx="0" cy="0" r="1" gradientUnits="userSpaceOnUse" gradientTransform="translate(22.2009 30.7621) rotate(90) scale(6.76714 27.5723)">
<stop/>
<stop offset="1" stop-opacity="0"/>
</radialGradient>
<radialGradient id="paint7_radial_1_144" cx="0" cy="0" r="1" gradientUnits="userSpaceOnUse" gradientTransform="translate(30.1255 19.5551) rotate(60.8036) scale(7.30017 8.56287)">
<stop stop-color="white"/>
<stop offset="1" stop-opacity="0"/>
</radialGradient>
</defs>
</svg>
