<svg width="340" height="205" viewBox="0 0 340 205" fill="none" xmlns="http://www.w3.org/2000/svg">
<path d="M204.354 188.903C200.573 189.369 194.154 187.372 193.678 181.611C193.202 175.851 190.611 174.289 185.844 173.356C181.077 172.423 179.676 170.898 179.146 168.161C178.616 165.424 182.226 162.145 181.186 158.027C180.146 153.908 176.78 153.914 173.441 149.236C171.299 146.231 175.678 141.658 182.961 143.637C190.244 145.615 189.652 149.914 196.976 150.48C204.299 151.046 208.855 155.09 208.991 160.117C209.127 165.144 204.354 188.903 204.354 188.903Z" fill="#BA68C8"/>
<path d="M205.734 177.854C205.624 177.853 205.518 177.818 205.432 177.755C205.347 177.692 205.288 177.604 205.265 177.505C201.804 161.859 182.995 147.55 178.412 146.094C178.292 146.055 178.194 145.974 178.138 145.87C178.082 145.765 178.073 145.645 178.112 145.534C178.133 145.48 178.165 145.429 178.207 145.386C178.249 145.343 178.3 145.308 178.357 145.283C178.414 145.258 178.476 145.244 178.539 145.241C178.602 145.238 178.665 145.247 178.724 145.267C183.423 146.76 202.674 161.374 206.203 177.331C206.216 177.388 206.217 177.446 206.205 177.502C206.193 177.559 206.169 177.613 206.134 177.661C206.099 177.709 206.054 177.75 206.002 177.782C205.95 177.814 205.891 177.836 205.829 177.848L205.734 177.854Z" fill="white"/>
<path d="M187.36 165.181C187.245 165.179 187.135 165.139 187.049 165.069C186.963 164.999 186.907 164.904 186.891 164.799C186.876 164.695 186.901 164.589 186.964 164.5C187.026 164.412 187.121 164.347 187.231 164.316C187.517 164.248 194.269 162.605 199.757 164.049C199.87 164.088 199.962 164.165 200.016 164.264C200.071 164.363 200.082 164.477 200.049 164.583C200.015 164.69 199.94 164.781 199.836 164.838C199.733 164.896 199.61 164.916 199.492 164.895C194.256 163.514 187.551 165.15 187.483 165.162C187.443 165.175 187.402 165.181 187.36 165.181Z" fill="white"/>
<path d="M201.518 167.806C201.442 167.805 201.368 167.788 201.3 167.757C201.244 167.732 201.194 167.696 201.152 167.653C201.111 167.61 201.08 167.56 201.06 167.505C201.04 167.451 201.033 167.393 201.038 167.336C201.043 167.278 201.061 167.223 201.09 167.172C203.436 162.861 202.994 154.935 202.987 154.854C202.983 154.797 202.992 154.739 203.012 154.685C203.033 154.631 203.065 154.581 203.107 154.538C203.148 154.496 203.199 154.461 203.255 154.436C203.312 154.411 203.373 154.397 203.436 154.393C203.563 154.388 203.688 154.429 203.783 154.507C203.879 154.585 203.937 154.694 203.946 154.81C203.946 155.14 204.408 163.047 201.946 167.564C201.905 167.636 201.844 167.696 201.768 167.739C201.693 167.781 201.607 167.805 201.518 167.806Z" fill="white"/>
<path d="M67.9184 154.785C67.4424 155.022 58.7384 157.274 55.5152 153.386C52.292 149.497 57.6436 143.432 54.6176 141.173C51.5916 138.915 43.112 141.198 41.072 136.47C39.032 131.742 45.084 129.732 41.684 124.985C39.542 121.993 33.524 120.344 33.8232 117.557C34.2244 113.489 42.4116 112.394 49.5652 116.748C56.7188 121.103 60.0508 117.539 62.322 117.246C64.5932 116.954 69.4892 117.601 69.326 124.892C69.1628 132.183 67.9184 154.785 67.9184 154.785Z" fill="#455A64"/>
<path d="M68.4896 144.414C68.3783 144.414 68.2706 144.378 68.1859 144.312C68.1012 144.246 68.045 144.154 68.0272 144.054C65.5316 130.211 47.9536 118.951 38.7872 116.537C38.6665 116.504 38.565 116.428 38.5051 116.327C38.4452 116.225 38.4317 116.106 38.4676 115.996C38.484 115.941 38.5123 115.889 38.5508 115.845C38.5894 115.8 38.6374 115.763 38.692 115.736C38.7466 115.708 38.8067 115.691 38.8686 115.686C38.9305 115.68 38.993 115.686 39.0524 115.703C48.4024 118.192 66.3816 129.714 68.9384 143.911C68.9491 143.967 68.9475 144.024 68.9338 144.079C68.92 144.135 68.8944 144.187 68.8583 144.234C68.8223 144.28 68.7765 144.319 68.7237 144.349C68.6709 144.379 68.6122 144.399 68.5508 144.408L68.4896 144.414Z" fill="white"/>
<path d="M47.7632 132.83C47.6585 132.833 47.5558 132.804 47.4714 132.747C47.3871 132.69 47.326 132.609 47.2978 132.517C47.2697 132.424 47.2761 132.326 47.3161 132.238C47.356 132.149 47.4273 132.075 47.5184 132.028C47.804 131.872 54.57 128.252 61.234 129.944C61.3538 129.976 61.455 130.05 61.5158 130.149C61.5766 130.249 61.5922 130.367 61.5592 130.477C61.5263 130.587 61.4473 130.681 61.3394 130.738C61.2315 130.796 61.1033 130.812 60.9824 130.784C54.7128 129.191 48.0624 132.737 48.0012 132.774C47.9282 132.811 47.8464 132.83 47.7632 132.83Z" fill="white"/>
<path d="M277.828 133.266C275.679 129.029 274.57 118.839 276.576 111.292C278.582 103.746 284.097 96.5169 290.312 95.9134C296.106 95.3535 298.615 101.581 294.569 108.132C290.523 114.683 283.948 123.555 284.777 131.561L283.465 142.368L277.828 133.266Z" fill="#BA68C8"/>
<path opacity="0.2" d="M277.828 133.266C275.679 129.029 274.57 118.839 276.576 111.292C278.582 103.746 284.097 96.5169 290.312 95.9134C296.106 95.3535 298.615 101.581 294.569 108.132C290.523 114.683 283.948 123.555 284.777 131.561L283.465 142.368L277.828 133.266Z" fill="black"/>
<path d="M280.432 139.207C280.502 139.17 280.558 139.113 280.591 139.045C280.624 138.977 280.632 138.901 280.616 138.828C276.366 123.057 283.179 105.855 289.51 100.013C289.573 99.9496 289.608 99.8664 289.608 99.7803C289.607 99.6942 289.571 99.6116 289.506 99.5488C289.442 99.486 289.354 99.4477 289.26 99.4415C289.166 99.4353 289.073 99.4618 289 99.5155C282.547 105.475 275.597 122.957 279.908 138.977C279.933 139.064 279.993 139.139 280.077 139.186C280.161 139.232 280.262 139.247 280.357 139.226C280.383 139.222 280.408 139.216 280.432 139.207Z" fill="white"/>
<path d="M287.49 147.457C287.028 144.763 288.211 139.481 291.7 134.05C295.562 128.04 301.9 123.331 302.158 119.828C302.45 115.629 297.745 113.768 292.237 116.916C286.729 120.064 280.167 131.723 284.077 143.4L287.49 147.457Z" fill="#BA68C8"/>
<path d="M285.09 145.441C285.154 145.41 285.207 145.362 285.241 145.303C285.275 145.244 285.289 145.177 285.28 145.111C283.832 130.665 291.951 121.912 296.48 119.324C296.555 119.273 296.606 119.197 296.623 119.113C296.641 119.029 296.623 118.942 296.573 118.869C296.524 118.796 296.446 118.743 296.356 118.72C296.265 118.697 296.169 118.706 296.086 118.745C291.115 121.626 283.091 130.429 284.573 145.173C284.577 145.218 284.59 145.262 284.612 145.302C284.634 145.342 284.665 145.377 284.702 145.406C284.739 145.435 284.783 145.457 284.83 145.471C284.876 145.484 284.926 145.489 284.974 145.485C285.015 145.476 285.055 145.462 285.09 145.441Z" fill="white"/>
<path d="M136.36 108.916C132.96 104.76 128.731 96.8155 127.792 86.7557C126.793 75.9929 129.302 66.7232 135.918 64.751C142.086 62.8846 145.833 69.9085 143.534 81.6542C141.923 89.8974 141.243 99.4782 144.16 108.014L146.819 119.735L136.36 108.916Z" fill="#BA68C8"/>
<path d="M136.36 108.916C132.96 104.76 128.731 96.8155 127.792 86.7557C126.793 75.9929 129.302 66.7232 135.918 64.751C142.086 62.8846 145.833 69.9085 143.534 81.6542C141.923 89.8974 141.243 99.4782 144.16 108.014L146.819 119.735L136.36 108.916Z" fill="#37474F"/>
<path d="M139.652 111.529C139.715 111.48 139.759 111.413 139.779 111.34C139.798 111.266 139.792 111.188 139.76 111.118C133.64 96.9026 131.995 78.8173 135.959 69.0499C135.979 69.0047 135.988 68.9563 135.986 68.9077C135.985 68.8591 135.973 68.8113 135.95 68.7671C135.928 68.723 135.896 68.6834 135.857 68.6507C135.818 68.6181 135.771 68.593 135.721 68.5771C135.622 68.5427 135.512 68.5456 135.415 68.5853C135.318 68.6249 135.242 68.698 135.204 68.7886C131.179 78.7116 132.818 97.0208 139.012 111.386C139.031 111.431 139.06 111.473 139.096 111.508C139.133 111.544 139.177 111.572 139.226 111.592C139.274 111.612 139.327 111.622 139.38 111.623C139.434 111.624 139.486 111.615 139.536 111.597L139.652 111.529Z" fill="white"/>
<path d="M148.24 109.382C152.268 110.447 156.531 110.527 160.602 109.613C167.661 108.12 169.306 104.132 169.306 104.132C169.306 104.132 164.172 99.4035 159.698 99.1982C159.698 99.1982 166.614 98.0286 173.128 99.2605C173.128 99.2605 177.208 97.8171 176.317 91.5585C176.317 91.5585 172.407 89.07 163.54 90.1836C163.54 90.1836 167.94 87.2409 175.732 86.2766C176.351 86.2766 175.372 78.1206 174.563 74.4935C173.754 70.8665 172.285 71.4513 169.123 71.8122C165.961 72.173 155.951 75.3583 154.788 77.4735C153.626 79.5888 154.904 84.8706 154.904 84.8706C154.904 84.8706 151.939 82.7119 151.246 80.0554C149.006 80.2749 146.893 81.1124 145.187 82.4568C142.412 84.684 143.256 86.0465 144.208 88.199C145.151 90.3711 146.431 92.4076 148.009 94.2461C148.009 94.2461 144.996 93.3067 142.038 86.8241C142.038 86.8241 139.182 91.8571 138.727 95.4468C138.271 99.0365 142.072 106.558 148.24 109.382Z" fill="#455A64"/>
<path d="M148.376 109.725C148.446 109.699 148.507 109.656 148.55 109.599C148.594 109.543 148.618 109.476 148.621 109.407C149.478 97.2447 164.159 78.0459 170.728 74.1389C170.772 74.1124 170.811 74.078 170.841 74.0379C170.871 73.9977 170.892 73.9525 170.903 73.9048C170.914 73.8572 170.915 73.808 170.905 73.7601C170.896 73.7122 170.876 73.6665 170.847 73.6257C170.818 73.5848 170.78 73.5496 170.736 73.522C170.692 73.4944 170.643 73.475 170.591 73.4649C170.539 73.4548 170.485 73.4542 170.433 73.4631C170.38 73.472 170.33 73.4902 170.286 73.5168C163.608 77.486 148.689 97.0021 147.846 109.358C147.843 109.406 147.851 109.454 147.868 109.5C147.886 109.545 147.913 109.587 147.949 109.623C147.984 109.659 148.027 109.688 148.074 109.708C148.122 109.729 148.174 109.741 148.226 109.743C148.277 109.748 148.328 109.741 148.376 109.725Z" fill="white"/>
<path d="M217.505 140.924C214.105 147.146 210.147 158.904 205.72 169.604C200.886 181.276 200.28 189.457 204.558 192.399C208.733 195.261 221.177 193.55 228.976 178.358C231.418 173.611 240.604 158.941 240.604 158.941C240.604 158.941 247.404 156.695 249.744 155.016C249.744 155.016 272.422 155.638 283.431 153.56C294.44 151.482 298.52 138.71 294.005 137.509C285.892 135.325 277.732 134.205 259.44 133.154L217.505 140.924Z" fill="#37474F"/>
<path d="M271.32 143.344C264.425 144.813 255.265 150.076 252.504 151.357C249.744 152.639 242.005 156.434 240.598 155.32C238.79 153.913 236.716 152.821 234.478 152.098C236.844 153.56 241.522 156.117 239.081 161.336L240.577 158.941C240.577 158.941 247.377 156.695 249.716 155.016C249.716 155.016 262.398 155.351 273.394 154.661L281.432 143.344C281.432 143.344 278.229 141.876 271.32 143.344Z" fill="#263238"/>
<path d="M235.382 167.402C235.382 167.402 227.623 169.424 217.505 175.67C217.505 175.67 225.372 168.205 236.409 165.685L235.382 167.402Z" fill="#263238"/>
<path d="M249.927 154.449C247.037 155.694 243.066 156.222 240.788 155.072C238.51 153.921 235.09 152.732 232.234 156.789C228.997 161.399 222.952 163.066 219.232 165.05C215.512 167.035 215.023 171.446 215.506 174.718C216.315 180.243 218.729 175.907 221.734 173.387C224.74 170.867 233.736 168.205 237.449 166.929C241.162 165.654 240.727 165.231 250.662 162.63L249.927 154.449Z" fill="#B16668"/>
<path d="M291.516 136.955C305.51 139.506 303.246 147.158 298.03 151.301C292.4 155.762 275.781 158.549 267.648 159.862C259.515 161.175 248.316 163.352 248.316 163.352C246.699 160.846 246.149 157.882 246.772 155.028C256.156 152.266 270.11 142.442 281.452 143.357L291.516 136.955Z" fill="#37474F"/>
<path d="M252.09 162.313C254.558 161.374 258.21 160.024 259.44 157.958C260.671 155.893 263.622 153.603 268.41 155.656C273.85 157.958 279.922 156.409 284.22 156.278C288.517 156.148 291.516 159.625 293.026 162.624C295.569 167.688 290.986 165.206 286.987 164.553C282.989 163.899 273.448 164.64 269.763 165.61C266.077 166.581 256.945 170.712 256.945 170.712L252.09 162.313Z" fill="#B16668"/>
<path d="M204.558 192.399C207.652 194.434 211.813 196.754 223.455 192.953C235.096 189.152 258.502 170.612 258.502 170.612C258.502 170.612 258.842 162.661 252.008 161.859C252.008 161.859 246.194 163.657 236.769 166.917C232.52 168.399 228.359 170.085 224.305 171.968C219.028 180.946 211.65 178.613 209.644 181.792C207.554 185.158 205.85 188.713 204.558 192.399Z" fill="#37474F"/>
<path d="M253.538 151.507C253.538 151.507 255.762 148.57 256.034 145.478C256.034 145.478 256.85 148.29 255.809 150.642L253.538 151.507Z" fill="#263238"/>
<path d="M243.304 78.6556C247.663 78.0334 252.919 79.2777 257.156 83.3837C261.392 87.4898 276.937 104.785 279.99 108.325L269.552 113.159L251.076 98.1157L243.304 78.6556Z" fill="#B16668"/>
<path d="M223.251 83.3837C221.324 84.1631 219.81 85.6044 219.035 87.3964C218.135 89.6102 217.699 91.9593 217.75 94.3207C217.75 94.3207 218.382 101.917 218.382 110.67C218.382 119.424 217.505 140.924 217.505 140.924C230.064 146.984 250.342 142.791 259.44 133.129C259.44 133.129 258.692 99.0116 258.692 92.7716C258.692 92.4917 258.692 92.2055 258.692 91.9131C258.203 83.0042 248.615 76.8887 239.176 79.1159L231.241 80.9823L223.278 83.3837H223.251Z" fill="#FED99B"/>
<path opacity="0.2" d="M246.915 123.113C249.349 122.665 256.714 122.957 259.223 123.075C259.182 121.11 259.134 118.969 259.094 116.761L247.126 110.434L222.816 125.023L221.408 111.435C224.502 106.882 225.685 98.3272 225.298 91.8696C225.298 91.8696 221.673 89.5988 218.919 87.6764C218.101 89.8079 217.705 92.0558 217.75 94.3145C217.75 94.3145 218.382 101.911 218.382 110.664C218.382 119.417 217.505 140.918 217.505 140.918C226.984 145.491 240.856 144.215 251.002 139.17C244.848 142.243 232.193 142.032 228.602 140.619C225.012 139.207 225.318 133.428 227.494 131.561C229.67 129.695 243.957 123.666 246.915 123.113Z" fill="black"/>
<path d="M256.841 58.4099C259.383 52.7945 256.468 46.3566 250.33 44.0306C244.193 41.7046 237.156 44.3713 234.613 49.9867C232.071 55.6022 234.986 62.04 241.124 64.366C247.261 66.692 254.298 64.0254 256.841 58.4099Z" fill="#263238"/>
<path d="M224.93 62.0261C224.93 62.0261 226.882 70.3999 227.65 71.781C228.171 72.6288 229.028 73.2613 230.044 73.5479L229.908 67.6501L224.93 62.0261Z" fill="#263238"/>
<path d="M227.378 50.019C226.697 49.9461 226.006 50.017 225.359 50.2262C224.712 50.4354 224.125 50.7774 223.645 51.226C222.04 52.7253 222.965 57.4473 224.93 62.0261L228.602 62.4118L227.378 50.019Z" fill="#263238"/>
<path d="M229.704 62.4118C228.97 62.8162 227.916 61.5222 226.984 60.6512C226.052 59.7802 223.115 58.592 221.632 61.4475C220.15 64.3031 222.938 68.1852 225.27 68.8571C229.296 70.0142 229.894 67.6501 229.894 67.6501L230.194 81.3369C235.192 87.1974 249.07 86.7059 243.284 80.5779V76.5403C243.284 76.5403 246.928 77.0443 248.724 76.7954C251.682 76.3786 253.545 74.2385 254.436 71.3145C255.877 66.6112 256.428 62.81 255.204 53.5589C253.844 43.4183 240.972 43.3125 234.015 47.3377C227.059 51.3628 229.704 62.4118 229.704 62.4118Z" fill="#B16668"/>
<path d="M229.704 63.5441C229.337 63.5441 227.929 61.4164 226.984 60.6512C225.712 59.5936 227.351 50.019 227.351 50.019C227.351 50.019 226.134 47.6425 228.575 45.1789C230.316 43.4307 233.226 43.2316 238.19 42.5224C240.795 42.1429 244.739 41.4772 247.343 41.0355C250.444 40.5067 253.014 39.9468 255.211 41.6887C256.07 42.3718 256.678 43.2812 256.951 44.2924C257.223 45.3037 257.148 46.3673 256.734 47.3377C256.508 47.777 256.21 48.182 255.85 48.5384C255.257 49.1851 254.484 49.6731 253.613 49.9506C253.613 49.9506 252.253 51.0455 247.547 51.5743C242.842 52.1032 235.504 51.4748 234.498 51.3442C233.138 51.1762 232.839 52.3893 232.104 55.6991C231.486 58.5982 230.948 63.5254 229.704 63.5441Z" fill="#263238"/>
<path d="M227.385 50.7656L222.938 48.5819C223.08 48.3076 223.28 48.0624 223.529 47.8612C223.777 47.66 224.067 47.5071 224.382 47.4117C224.697 47.3163 225.029 47.2804 225.36 47.3062C225.69 47.3319 226.011 47.4188 226.304 47.5616C226.9 47.8657 227.346 48.3684 227.547 48.9652C227.748 49.562 227.69 50.2069 227.385 50.7656Z" fill="#263238"/>
<path d="M243.304 76.5341C243.304 76.5341 236.701 75.2898 234.396 74.1949C233.037 73.5491 231.923 72.543 231.2 71.3082C231.55 72.5424 232.167 73.6996 233.016 74.7113C234.702 76.6896 243.304 78.1392 243.304 78.1392V76.5341Z" fill="#9A4A4D"/>
<path d="M243.44 60.7818C243.375 61.2202 243.151 61.6259 242.803 61.9336C242.456 62.2413 242.005 62.4331 241.524 62.4784C241.043 62.5236 240.56 62.4195 240.151 62.1829C239.742 61.9463 239.433 61.5909 239.272 61.1738C239.896 61.5886 240.667 61.777 241.434 61.7026C242.203 61.6298 242.916 61.3024 243.44 60.7818Z" fill="#263238"/>
<path d="M254.143 60.6014C254.008 61.0274 253.72 61.3992 253.325 61.6568C252.931 61.9144 252.452 62.0428 251.968 62.0213C251.484 61.9997 251.022 61.8294 250.656 61.5379C250.291 61.2464 250.044 60.8507 249.954 60.4148C250.506 60.91 251.238 61.2025 252.01 61.2369C252.782 61.2713 253.541 61.0452 254.143 60.6014Z" fill="#263238"/>
<path d="M241.094 56.5887L238.258 58.0196C238.06 57.6614 238.019 57.2469 238.146 56.8622C238.273 56.4775 238.556 56.1523 238.938 55.9541C239.125 55.8642 239.329 55.8093 239.539 55.7926C239.75 55.7759 239.961 55.7977 240.162 55.8568C240.363 55.9159 240.549 56.0111 240.709 56.1368C240.869 56.2625 241 56.4161 241.094 56.5887Z" fill="#263238"/>
<path d="M242.706 69.2614L245.725 70.3004C245.659 70.4846 245.554 70.6548 245.415 70.8011C245.276 70.9473 245.106 71.0666 244.916 71.1519C244.726 71.2371 244.519 71.2866 244.307 71.2975C244.096 71.3083 243.884 71.2802 243.685 71.2149C243.277 71.0684 242.947 70.7831 242.765 70.4188C242.582 70.0545 242.561 69.6397 242.706 69.2614Z" fill="#9A4A4D"/>
<path d="M255 57.4161L252.416 55.5995C252.537 55.4396 252.692 55.3039 252.872 55.2008C253.052 55.0976 253.253 55.0291 253.463 54.9994C253.673 54.9697 253.888 54.9794 254.094 55.0281C254.299 55.0767 254.492 55.1632 254.66 55.2822C255.004 55.5306 255.231 55.8902 255.295 56.2872C255.358 56.6841 255.252 57.0882 255 57.4161Z" fill="#263238"/>
<path d="M246.86 59.4069L247.296 66.6858L251.444 65.3918L246.86 59.4069Z" fill="#9A4A4D"/>
<path d="M223.251 83.3837C220.678 83.7794 218.242 84.7212 216.138 86.1335C212.874 88.4105 211.575 91.2536 209.644 96.6537C208.202 100.679 200.274 125.788 201.681 128.755C203.816 133.253 212.405 130.896 217.926 129.44C224.162 127.791 244.827 120.73 245.99 118.54C246.636 117.296 246.915 116.531 246.915 108.586C246.915 105.171 246.82 101.743 246.643 99.8763C246.255 95.6148 243.284 95.4654 241.93 98.545C240.577 101.625 238.53 112.935 238.53 112.935L214.968 118.534L223.428 100.573C223.428 100.573 227.984 89.8103 223.251 83.3837Z" fill="#B16668"/>
<path d="M279.99 108.325C282.35 111.124 283.574 114.011 279.99 116.413C276.406 118.814 251.539 120.002 248.316 118.391C246.915 117.694 246.922 114.901 246.915 111.977C246.908 109.053 246.915 101.606 246.915 99.9137C246.915 98.2215 247.962 94.4701 249.907 95.2104C251.852 95.9507 254.143 109.961 254.143 109.961C262.48 110.241 274.332 106.452 279.99 108.325Z" fill="#B16668"/>
<path d="M106.27 53.4159C107.955 53.3036 109.645 53.3036 111.33 53.4159C115.852 53.7892 118 56.5265 120.544 59.015C124.542 62.9096 134.973 74.2074 137.856 77.5482L129.064 81.8347L110.554 67.9052L106.27 53.4159Z" fill="#FFA8A7"/>
<path d="M80.1448 99.8888C76.9216 105.843 68.9792 123.729 65.8648 136.097C62.9136 147.687 61.7848 155.712 65.8648 158.493C69.8496 161.224 81.7088 159.588 89.1412 145.111C91.4668 140.582 100.225 126.597 100.225 126.597C100.225 126.597 106.706 124.457 108.943 122.864C108.943 122.864 130.56 123.436 141.059 121.47C151.558 119.505 155.434 107.329 151.137 106.172C143.405 104.088 135.619 103.024 118.184 101.998L80.1448 99.8888Z" fill="#FED99B"/>
<path opacity="0.2" d="M129.486 111.753C124.726 112.761 118.918 115.635 115.029 117.626C115.269 116.351 115.225 115.046 114.9 113.787C114.679 115.483 114.082 117.119 113.145 118.596C112.499 118.932 111.948 119.218 111.547 119.393C108.922 120.637 101.708 123.996 100.368 122.932C98.3528 120.555 95.4931 118.895 92.2828 118.242C94.5404 119.635 101.123 123.928 98.77 128.905L100.191 126.622C100.191 126.622 106.672 124.482 108.909 122.889C108.909 122.889 120.992 123.212 131.478 122.547L139.142 111.759C139.142 111.759 136.061 110.353 129.486 111.753Z" fill="black"/>
<path d="M95.2 134.691C95.2 134.691 87.822 136.613 78.2 142.567C78.2 142.567 85.68 135.431 96.22 133.048L95.2 134.691Z" fill="#263238"/>
<path d="M109.079 122.341C106.359 123.517 102.537 124.027 100.368 122.932C98.1988 121.838 94.928 120.705 92.208 124.575C89.1208 128.961 83.368 130.553 79.8184 132.445C76.2688 134.336 75.7996 138.542 76.262 141.658C77.0372 146.928 79.3356 142.791 82.1984 140.414C85.0612 138.038 93.6428 135.468 97.1584 134.255C100.674 133.042 100.28 132.638 109.752 130.162L109.079 122.341Z" fill="#FFA8A7"/>
<path d="M148.73 105.668C162.064 108.095 159.909 115.386 154.938 119.355C149.6 123.592 133.729 126.267 125.977 127.511C118.225 128.756 107.542 130.84 107.542 130.84C106.001 128.442 105.481 125.609 106.08 122.883C115.029 120.251 128.33 110.882 139.148 111.753L148.73 105.668Z" fill="#FED99B"/>
<path d="M111.146 129.838C113.499 128.942 116.953 127.654 118.15 125.664C119.347 123.673 122.135 121.526 126.698 123.467C131.879 125.664 137.673 124.189 141.773 124.052C145.874 123.915 148.73 127.238 150.164 130.093C152.592 134.927 148.226 132.582 144.405 131.959C140.583 131.337 131.485 132.04 127.99 132.967C124.494 133.894 115.75 137.832 115.75 137.832L111.146 129.838Z" fill="#FFA8A7"/>
<path d="M65.8308 158.518C68.7752 160.459 72.7464 162.686 83.844 159.047C94.9416 155.407 117.252 137.745 117.252 137.745C117.252 137.745 117.579 130.168 111.064 129.403C111.064 129.403 105.522 131.113 96.5396 134.224C92.4871 135.638 88.5194 137.247 84.6532 139.046C79.628 147.6 72.59 145.373 70.6792 148.377C68.686 151.596 67.0613 154.994 65.8308 158.518Z" fill="#FED99B"/>
<path d="M116.402 80.9139C116.933 85.4119 118.15 102.016 118.15 102.016C114.328 113.787 84.6872 111.423 78.9616 102.184C82.1304 95.4219 85.6392 91.3781 87.9376 89.1198L82.6744 75.6818C82.6744 75.6818 82.042 74.3069 82.0556 74.2945C82.4092 73.747 89.7532 66.1695 82.7832 54.1375L92.2624 53.3474L106.148 52.9804C109.174 53.1359 111.33 53.4034 111.33 53.4034C113.268 55.0583 116.328 59.6247 118.306 64.2596C119.585 67.2707 120.965 72.0486 116.402 80.9139Z" fill="#F5F5F5"/>
<path d="M91.5416 97.9602C94.724 96.1311 103.782 92.1682 107.603 91.6518C110.187 91.3097 114.736 91.9567 117.416 92.417C117.212 89.8352 116.994 87.1538 116.79 84.9515L112.628 84.5347C112.628 84.5347 110.16 77.9215 107.603 77.0692C105.046 76.2168 103.251 81.1441 100.973 84.0619C98.6952 86.9797 90.4876 86.5504 90.4876 86.5504L85.1972 74.8793C85.1972 74.8793 87.1012 65.9331 86.4076 60.9996L85.5236 61.4227C85.4217 65.9109 84.2375 70.3232 82.0556 74.3442L82.6744 75.7316L87.9376 89.1695C85.6392 91.4092 82.1304 95.453 78.9616 102.234C82.824 108.455 97.5868 111.566 107.95 109.302C98.7156 109.998 90.3108 107.777 88.842 105.351C87.3732 102.925 88.3592 99.7893 91.5416 97.9602Z" fill="#E0E0E0"/>
<path d="M103.714 46.5103H98.226C95.9611 46.5111 93.7183 46.1036 91.6257 45.311C89.533 44.5184 87.6316 43.3563 86.0301 41.8911C84.4286 40.4259 83.1584 38.6863 82.2921 36.7717C81.4258 34.8572 80.9803 32.8052 80.9812 30.7331C80.9812 25.8822 83.0875 21.2299 86.8367 17.7997C90.586 14.3696 95.671 12.4426 100.973 12.4426C106.275 12.4426 111.36 14.3696 115.11 17.7997C118.859 21.2299 120.965 25.8822 120.965 30.7331C120.965 32.8055 120.519 34.8576 119.652 36.7722C118.785 38.6868 117.514 40.4263 115.912 41.8915C114.31 43.3566 112.408 44.5186 110.315 45.3111C108.222 46.1036 105.979 46.5111 103.714 46.5103Z" fill="#BA68C8"/>
<path opacity="0.5" d="M103.714 46.5103H98.226C95.9611 46.5111 93.7183 46.1036 91.6257 45.311C89.533 44.5184 87.6316 43.3563 86.0301 41.8911C84.4286 40.4259 83.1584 38.6863 82.2921 36.7717C81.4258 34.8572 80.9803 32.8052 80.9812 30.7331C80.9812 25.8822 83.0875 21.2299 86.8367 17.7997C90.586 14.3696 95.671 12.4426 100.973 12.4426C106.275 12.4426 111.36 14.3696 115.11 17.7997C118.859 21.2299 120.965 25.8822 120.965 30.7331C120.965 32.8055 120.519 34.8576 119.652 36.7722C118.785 38.6868 117.514 40.4263 115.912 41.8915C114.31 43.3566 112.408 44.5186 110.315 45.3111C108.222 46.1036 105.979 46.5111 103.714 46.5103Z" fill="black"/>
<path d="M94.7779 15.2209C95.7062 11.6227 93.2704 8.01736 89.3375 7.16811C85.4046 6.31886 81.4639 8.54732 80.5357 12.1455C79.6074 15.7437 82.0432 19.349 85.9761 20.1983C89.909 21.0475 93.8497 18.8191 94.7779 15.2209Z" fill="#BA68C8"/>
<path opacity="0.5" d="M94.7779 15.2209C95.7062 11.6227 93.2704 8.01736 89.3375 7.16811C85.4046 6.31886 81.4639 8.54732 80.5357 12.1455C79.6074 15.7437 82.0432 19.349 85.9761 20.1983C89.909 21.0475 93.8497 18.8191 94.7779 15.2209Z" fill="black"/>
<path d="M113.825 20.4058C115.933 21.5505 118.544 26.4093 118.286 36.5811C118.068 45.2162 115.008 47.3501 113.472 47.966C111.935 48.582 108.977 48.2087 106.094 47.767V52.9493C106.094 52.9493 110.078 57.1798 109.827 59.5563C109.575 61.9328 104.081 62.4927 100.354 60.1784C96.628 57.8641 93.4932 53.335 93.4932 53.335L93.5612 41.4213C93.5612 41.4213 91.8612 42.9268 88.9916 40.6312C86.6184 38.7648 85.816 35.5297 87.6316 33.7878C88.1112 33.38 88.6898 33.0823 89.3198 32.9192C89.9498 32.756 90.613 32.7321 91.2551 32.8493C91.8971 32.9666 92.4996 33.2216 93.0128 33.5935C93.5261 33.9654 93.9354 34.4435 94.2072 34.9885C94.2072 34.9885 98.804 35.144 104.917 32.0707C107.299 30.9026 109.346 29.2379 110.894 27.2114C112.441 25.1849 113.446 22.8534 113.825 20.4058Z" fill="#FFA8A7"/>
<path d="M106.08 47.7794C103.047 47.4123 96.8048 45.7761 95.8324 43.5178C96.2236 44.66 96.9878 45.6652 98.022 46.3983C99.8852 47.8603 106.08 49.5089 106.08 49.5089V47.7794Z" fill="#F28F8F"/>
<path d="M85.85 20.0449L81.0424 22.0046C80.8861 21.723 80.7939 21.4152 80.7714 21.0999C80.749 20.7847 80.7968 20.4686 80.9119 20.1707C81.0269 19.8729 81.207 19.5995 81.441 19.3672C81.675 19.1349 81.9581 18.9485 82.2732 18.8193C82.9273 18.5641 83.6638 18.549 84.3297 18.7772C84.9957 19.0054 85.5401 19.4594 85.85 20.0449Z" fill="#BA68C8"/>
<path opacity="0.5" d="M85.85 20.0449L81.0424 22.0046C80.8861 21.723 80.7939 21.4152 80.7714 21.0999C80.749 20.7847 80.7968 20.4686 80.9119 20.1707C81.0269 19.8729 81.207 19.5995 81.441 19.3672C81.675 19.1349 81.9581 18.9485 82.2732 18.8193C82.9273 18.5641 83.6638 18.549 84.3297 18.7772C84.9957 19.0054 85.5401 19.4594 85.85 20.0449Z" fill="black"/>
<path d="M107.603 33.346C107.554 33.7717 107.346 34.169 107.015 34.4712C106.683 34.7734 106.249 34.9622 105.783 35.006C105.318 35.0497 104.85 34.9458 104.458 34.7115C104.067 34.4773 103.775 34.127 103.632 33.7193C104.221 34.1108 104.947 34.2902 105.672 34.2232C106.412 34.1577 107.099 33.8455 107.603 33.346Z" fill="#263238"/>
<path d="M117.783 33.1781C117.666 33.5942 117.395 33.9607 117.017 34.2155C116.639 34.4703 116.176 34.5979 115.707 34.5767C115.237 34.5555 114.791 34.3868 114.442 34.0991C114.093 33.8114 113.863 33.4224 113.791 32.9977C114.318 33.4687 115.014 33.7475 115.75 33.7815C116.485 33.8105 117.206 33.5963 117.783 33.1781Z" fill="#263238"/>
<path d="M105.352 29.3769L102.632 30.7331C102.438 30.396 102.395 30.0031 102.512 29.6375C102.629 29.2718 102.896 28.962 103.258 28.7734C103.437 28.6798 103.635 28.6211 103.84 28.601C104.045 28.5809 104.253 28.5997 104.449 28.6564C104.646 28.7131 104.828 28.8063 104.983 28.9303C105.139 29.0543 105.264 29.2063 105.352 29.3769Z" fill="#263238"/>
<path d="M106.889 41.4213L109.766 42.4105C109.703 42.5868 109.602 42.7497 109.469 42.8896C109.336 43.0295 109.174 43.1435 108.992 43.2248C108.81 43.3061 108.612 43.353 108.409 43.3627C108.207 43.3724 108.004 43.3448 107.814 43.2814C107.427 43.1407 107.115 42.8685 106.942 42.5217C106.77 42.1749 106.751 41.7806 106.889 41.4213Z" fill="#F28F8F"/>
<path d="M118.232 29.5635L115.308 28.6179C115.365 28.44 115.462 28.2748 115.591 28.1323C115.721 27.9898 115.881 27.873 116.062 27.7892C116.243 27.7053 116.441 27.6561 116.643 27.6445C116.845 27.633 117.048 27.6593 117.239 27.722C117.63 27.8545 117.951 28.1193 118.136 28.4618C118.321 28.8044 118.355 29.1986 118.232 29.5635Z" fill="#263238"/>
<path d="M110.446 32.0396L110.86 38.9701L114.818 37.7383L110.446 32.0396Z" fill="#F28F8F"/>
<path d="M84.4084 54.0193C81.7741 53.9825 79.2252 54.8734 77.2888 56.5079C74.528 58.9964 73.2632 61.4413 71.4408 66.5428C70.0808 70.344 62.6008 94.0471 63.92 96.8466C65.96 101.096 74.0452 98.8748 79.2608 97.4688C85.1496 95.9134 104.659 89.2567 105.781 87.1788C106.393 86.0216 106.658 85.2813 106.651 77.8095C106.651 74.5807 106.563 71.3518 106.4 69.5788C106.032 65.5536 103.231 65.4167 101.946 68.3345C100.66 71.2523 98.7632 81.9218 98.7632 81.9218L76.5204 87.1912L84.5036 70.232C84.5036 70.232 88.876 60.0913 84.4084 54.0193Z" fill="#FFA8A7"/>
<path d="M137.856 77.542C140.087 80.186 141.256 82.9109 137.856 85.163C134.456 87.4151 110.99 88.5536 107.936 87.0294C106.617 86.37 106.624 83.7322 106.617 80.9761C106.61 78.2201 106.617 71.1776 106.617 69.5788C106.617 67.9799 107.603 64.44 109.439 65.1368C111.275 65.8335 113.438 79.0662 113.438 79.0662C121.319 79.3524 132.518 75.7751 137.856 77.542Z" fill="#FFA8A7"/>
</svg>
